<?xml version="1.0" encoding="utf-8"?>
<!-- Generator: Adobe Illustrator 19.2.1, SVG Export Plug-In . SVG Version: 6.00 Build 0)  -->
<svg version="1.1" id="Layer_1" xmlns="http://www.w3.org/2000/svg" xmlns:xlink="http://www.w3.org/1999/xlink" x="0px" y="0px"
	 viewBox="0 0 960 74" style="enable-background:new 0 0 960 74;" xml:space="preserve">
<style type="text/css">
	.st0{fill:#231F20;}
</style>
<g>
	<path class="st0" d="M52,14H15.8v21.4h32.4v6.2H15.8v26.1H9V7.7h43V14z"/>
	<path class="st0" d="M102.9,67.6L85.6,44.4H68.4v23.3h-6.8V7.7h25.7c13.2,0,21.6,7.1,21.6,17.9c0,10-6.8,15.8-16.3,17.5l18.4,24.5
		H102.9z M86.9,14H68.4v24.3h18.4c9,0,15.4-4.6,15.4-12.4C102.2,18.4,96.6,14,86.9,14z"/>
	<path class="st0" d="M163.4,13.9h-36.5v20.4h32.7v6.2h-32.7v21h36.9v6.2h-43.7V7.7h43.3V13.9z"/>
	<path class="st0" d="M217.3,13.9h-36.5v20.4h32.7v6.2h-32.7v21h37v6.2H174V7.7h43.3V13.9z"/>
	<path class="st0" d="M271.4,46.5h-14.5v21.1h-6.8V7.7h22.4c13.5,0,22.4,7.2,22.4,19.1C294.9,39.8,284.2,46.5,271.4,46.5z M272,14
		h-15.1v26.3h14.8c9.9,0,16.4-5.3,16.4-13.3C288.1,18.4,281.7,14,272,14z"/>
	<path class="st0" d="M345.1,67.6l-17.4-23.3h-17.1v23.3h-6.8V7.7h25.8c13.2,0,21.6,7.1,21.6,17.9c0,10-6.8,15.8-16.2,17.5
		l18.4,24.5H345.1z M329.1,14h-18.5v24.3H329c9,0,15.4-4.6,15.4-12.4C344.4,18.4,338.7,14,329.1,14z"/>
	<path class="st0" d="M405.5,13.9H369v20.4h32.7v6.2H369v21H406v6.2h-43.7V7.7h43.3V13.9z"/>
	<path class="st0" d="M437.6,34.4c13.3,2.9,19.5,7.8,19.5,17c0,10.4-8.6,17-20.4,17c-9.5,0-17.3-3.2-24.5-9.6l4.2-5
		c6.2,5.6,12.2,8.5,20.5,8.5c8,0,13.3-4.2,13.3-10.3c0-5.6-3-8.8-15.6-11.5c-13.8-3-20.1-7.4-20.1-17.4c0-9.6,8.3-16.4,19.7-16.4
		c8.7,0,15,2.5,21.1,7.4l-3.9,5.2c-5.6-4.5-11.1-6.5-17.3-6.5c-7.8,0-12.7,4.3-12.7,9.7C421.4,28.4,424.5,31.6,437.6,34.4z"/>
	<path class="st0" d="M488.1,34.4c13.3,2.9,19.5,7.8,19.5,17c0,10.4-8.6,17-20.4,17c-9.5,0-17.3-3.2-24.5-9.6l4.2-5
		c6.2,5.6,12.2,8.5,20.5,8.5c8,0,13.3-4.2,13.3-10.3c0-5.6-3-8.8-15.6-11.5c-13.8-3-20.1-7.4-20.1-17.4c0-9.6,8.3-16.4,19.7-16.4
		c8.7,0,15,2.5,21,7.4l-3.9,5.2c-5.6-4.5-11.1-6.5-17.3-6.5c-7.8,0-12.7,4.3-12.7,9.7C471.8,28.4,474.9,31.6,488.1,34.4z"/>
	<path class="st0" d="M576.4,67.6v-24h-24.3v24h-13.2V7.7h13.2v23.7h24.3V7.7h13.2v59.9H576.4z"/>
	<path class="st0" d="M629.6,68.6c-18.5,0-31.7-13.8-31.7-30.8v-0.2c0-17,13.4-31,31.9-31c18.5,0,31.7,13.8,31.7,30.8v0.2
		C661.5,54.7,648.1,68.6,629.6,68.6z M647.7,37.7c0-10.3-7.5-18.8-18.1-18.8c-10.6,0-18,8.4-18,18.6v0.2c0,10.3,7.5,18.8,18.1,18.8
		c10.6,0,18-8.4,18-18.6V37.7z"/>
	<path class="st0" d="M694.8,68.6c-16.1,0-25.9-9-25.9-26.6V7.7H682v33.9c0,9.7,4.9,14.8,12.9,14.8c8,0,12.9-4.9,12.9-14.4V7.7H721
		v33.8C721,59.7,710.8,68.6,694.8,68.6z"/>
	<path class="st0" d="M752.3,68.5c-9.1,0-18.2-3.2-25.4-9.6l7.8-9.3c5.4,4.5,11,7.3,17.9,7.3c5.4,0,8.6-2.1,8.6-5.6V51
		c0-3.3-2.1-5-12.1-7.6c-12.1-3.1-19.8-6.4-19.8-18.3v-0.2c0-10.9,8.7-18,21-18c8.7,0,16.2,2.7,22.2,7.6l-6.8,9.9
		c-5.3-3.7-10.5-5.9-15.6-5.9c-5.1,0-7.7,2.3-7.7,5.2v0.2c0,3.9,2.6,5.2,12.9,7.9c12.1,3.2,19,7.5,19,18v0.2
		C774.3,61.8,765.2,68.5,752.3,68.5z"/>
	<path class="st0" d="M808.2,19.9v47.7H795V19.9h-18.2V7.7h49.6v12.1H808.2z"/>
	<path class="st0" d="M859.6,68.6c-18.5,0-31.7-13.8-31.7-30.8v-0.2c0-17,13.4-31,31.9-31c18.5,0,31.7,13.8,31.7,30.8v0.2
		C891.5,54.7,878.1,68.6,859.6,68.6z M877.7,37.7c0-10.3-7.5-18.8-18.1-18.8c-10.6,0-18,8.4-18,18.6v0.2c0,10.3,7.5,18.8,18.1,18.8
		c10.6,0,18-8.4,18-18.6V37.7z"/>
	<path class="st0" d="M941.8,67.6l-29-38.1v38.1h-13V7.7h12.1L940,44.6V7.7h13v59.9H941.8z"/>
</g>
</svg>
