<?xml version="1.0" encoding="utf-8"?>
<!-- Generator: Adobe Illustrator 19.2.1, SVG Export Plug-In . SVG Version: 6.00 Build 0)  -->
<svg version="1.1" id="Layer_1" xmlns="http://www.w3.org/2000/svg" xmlns:xlink="http://www.w3.org/1999/xlink" x="0px" y="0px"
	 viewBox="0 0 449.9 212.9" style="enable-background:new 0 0 449.9 212.9;" xml:space="preserve">
<style type="text/css">
	.st0{display:none;}
	.st1{display:inline;}
	.st2{fill:#FFFFFF;}
	.st3{fill:#CBDB2A;}
	.st4{fill:none;stroke:#FFFFFF;stroke-width:2.3334;stroke-miterlimit:10;}
	.st5{display:none;fill:#1C803F;}
</style>
<g class="st0">
	<g class="st1">
		<path class="st2" d="M-69.8-197.1h1.7l3.4,15.9h-2.1l-0.6-3.1h-3.1l-0.6,3.1h-2.1L-69.8-197.1z M-67.8-186l-0.5-2.5
			c-0.3-1.7-0.6-3.6-0.8-5.5c-0.1,1-0.2,1.9-0.4,2.9c-0.2,1-0.3,2-0.5,3.1l-0.4,2H-67.8z"/>
		<path class="st2" d="M-59.8-191.9h2v1.3c0.3-0.6,0.7-1,1-1.2c0.3-0.2,0.8-0.4,1.3-0.4v2.1c-0.1,0-0.3,0-0.3,0
			c-0.7,0-1.2,0.2-1.5,0.5c-0.3,0.4-0.4,1-0.4,1.9v6.4h-2V-191.9z"/>
		<path class="st2" d="M-49.7-194.9h2v3h1.1v1.6h-1.1v9.1h-2v-9.1h-1.1v-1.6h1.1V-194.9z"/>
		<path class="st2" d="M-37.4-191.7v1.8c-0.5-0.4-1-0.5-1.5-0.5c-0.2,0-0.3,0-0.5,0.1c-0.2,0.1-0.3,0.1-0.4,0.3
			c-0.1,0.1-0.2,0.2-0.3,0.4c-0.1,0.1-0.1,0.3-0.1,0.5c0,0.5,0.5,1.1,1.4,1.8c0.4,0.3,0.7,0.6,0.9,0.8c0.2,0.2,0.4,0.5,0.6,0.7
			c0.3,0.4,0.4,1,0.4,1.6c0,1-0.3,1.7-0.8,2.3c-0.5,0.6-1.3,0.8-2.2,0.8c-0.6,0-1.1-0.2-1.7-0.5v-1.9c0.6,0.4,1.1,0.6,1.6,0.6
			c0.9,0,1.3-0.4,1.3-1.3c0-0.3-0.1-0.6-0.2-0.9c-0.1-0.1-0.2-0.2-0.4-0.4c-0.2-0.2-0.4-0.3-0.6-0.5c-0.8-0.6-1.4-1.2-1.7-1.6
			c-0.3-0.5-0.4-1-0.4-1.6c0-0.9,0.3-1.6,0.8-2.1c0.5-0.5,1.2-0.8,2.1-0.8C-38.6-192.1-38-192-37.4-191.7z"/>
		<path class="st2" d="M6.2-197.1h5.7v1.8H8.3v5h3.2v1.8H8.3v7.2H6.2V-197.1z"/>
		<path class="st2" d="M18.4-196.4c0.4,0,0.7,0.1,0.9,0.4c0.3,0.3,0.4,0.6,0.4,0.9c0,0.4-0.1,0.7-0.4,0.9c-0.3,0.3-0.6,0.4-0.9,0.4
			c-0.4,0-0.7-0.1-0.9-0.4c-0.3-0.3-0.4-0.6-0.4-1c0-0.4,0.1-0.7,0.4-0.9C17.7-196.3,18-196.4,18.4-196.4z M17.4-191.9h2v10.6h-2
			V-191.9z"/>
		<path class="st2" d="M25.4-198.7h2v17.5h-2V-198.7z"/>
		<path class="st2" d="M33.4-191.9h2v1.3c0.5-1,1.3-1.5,2.2-1.5c1,0,1.6,0.5,2,1.5c0.5-1,1.3-1.5,2.2-1.5c0.7,0,1.3,0.2,1.7,0.6
			c0.4,0.4,0.6,1,0.6,1.7v8.5h-2v-7c0-0.8-0.1-1.3-0.2-1.6c-0.1-0.3-0.4-0.4-0.8-0.4c-0.5,0-0.8,0.1-1,0.4c-0.2,0.3-0.2,0.8-0.2,1.6
			v7h-2v-7c0-0.4,0-0.7-0.1-1c0-0.3-0.1-0.5-0.2-0.6c-0.1-0.2-0.2-0.3-0.3-0.3c-0.1-0.1-0.3-0.1-0.5-0.1c-0.5,0-0.8,0.2-1,0.5
			c-0.2,0.3-0.3,0.8-0.3,1.6v7h-2V-191.9z"/>
		<path class="st2" d="M88.5-197.1h1.8l1.4,6.5c0.2,0.8,0.3,1.6,0.5,2.4c0.1,0.8,0.3,1.7,0.4,2.6c0-0.1,0-0.2,0-0.3
			c0-0.1,0-0.1,0-0.1l0.3-1.8l0.3-1.7l0.2-1.1l1.2-6.4h1.9l1.5,15.9h-2l-0.4-5.4c0-0.3,0-0.5,0-0.7c0-0.2,0-0.4,0-0.5l-0.1-2.1
			l-0.1-2c0,0,0,0,0-0.1c0,0,0-0.1,0-0.2l-0.1,0.3c-0.1,0.4-0.1,0.7-0.1,1c0,0.3-0.1,0.5-0.1,0.7l-0.3,1.4l-0.1,0.5l-1.3,6.9h-1.4
			l-1.3-6c-0.2-0.8-0.3-1.6-0.5-2.4c-0.1-0.8-0.3-1.7-0.4-2.6l-0.6,10.9h-2L88.5-197.1z"/>
		<path class="st2" d="M103.4-191.9h2v7.1c0,0.7,0.1,1.1,0.3,1.4c0.2,0.3,0.5,0.4,0.9,0.4c0.4,0,0.8-0.1,0.9-0.4
			c0.2-0.3,0.3-0.7,0.3-1.4v-0.9v-6.4h2v6.4c0,1.5-0.1,2.5-0.3,3c-0.5,1-1.4,1.5-2.9,1.5c-1.1,0-1.9-0.3-2.4-0.9
			c-0.5-0.6-0.7-1.6-0.7-2.9V-191.9z"/>
		<path class="st2" d="M119.8-191.7v1.8c-0.5-0.4-1-0.5-1.5-0.5c-0.2,0-0.3,0-0.5,0.1c-0.1,0.1-0.3,0.1-0.4,0.3
			c-0.1,0.1-0.2,0.2-0.3,0.4c-0.1,0.1-0.1,0.3-0.1,0.5c0,0.5,0.5,1.1,1.4,1.8c0.4,0.3,0.7,0.6,0.9,0.8c0.2,0.2,0.4,0.5,0.6,0.7
			c0.3,0.4,0.4,1,0.4,1.6c0,1-0.3,1.7-0.8,2.3c-0.5,0.6-1.3,0.8-2.2,0.8c-0.6,0-1.1-0.2-1.7-0.5v-1.9c0.6,0.4,1.1,0.6,1.6,0.6
			c0.9,0,1.3-0.4,1.3-1.3c0-0.3-0.1-0.6-0.2-0.9c-0.1-0.1-0.2-0.2-0.4-0.4c-0.2-0.2-0.4-0.3-0.6-0.5c-0.8-0.6-1.4-1.2-1.7-1.6
			c-0.3-0.5-0.4-1-0.4-1.6c0-0.9,0.3-1.6,0.8-2.1c0.5-0.5,1.2-0.8,2.1-0.8C118.7-192.1,119.3-192,119.8-191.7z"/>
		<path class="st2" d="M126.6-196.4c0.4,0,0.7,0.1,0.9,0.4c0.3,0.3,0.4,0.6,0.4,0.9c0,0.4-0.1,0.7-0.4,0.9c-0.3,0.3-0.6,0.4-0.9,0.4
			c-0.4,0-0.7-0.1-0.9-0.4c-0.3-0.3-0.4-0.6-0.4-1c0-0.4,0.1-0.7,0.4-0.9C125.9-196.3,126.3-196.4,126.6-196.4z M125.7-191.9h2v10.6
			h-2V-191.9z"/>
		<path class="st2" d="M138-191.7v2c-0.3-0.3-0.6-0.5-1-0.5c-1.1,0-1.6,1.2-1.6,3.5c0,2.5,0.5,3.7,1.6,3.7c0.3,0,0.6-0.1,1-0.4v1.8
			c-0.5,0.3-1,0.4-1.6,0.4c-2.1,0-3.2-1.8-3.2-5.4c0-1.9,0.3-3.3,0.8-4.2c0.5-0.9,1.3-1.4,2.4-1.4C137-192.1,137.5-191.9,138-191.7z
			"/>
		<path class="st2" d="M179.9-197.1h7v1.9h-2.4v14h-2.1v-14h-2.5V-197.1z"/>
		<path class="st2" d="M195.2-184.8h1.8c-0.1,2.5-1.2,3.8-3.1,3.8c-0.6,0-1.1-0.1-1.5-0.3c-0.4-0.2-0.7-0.5-1-1
			c-0.3-0.4-0.5-1-0.6-1.7c-0.1-0.7-0.2-1.5-0.2-2.4c0-1.9,0.3-3.3,0.8-4.2c0.5-0.9,1.3-1.4,2.4-1.4c2.1,0,3.2,1.9,3.2,5.6v0.2h-4.5
			c0,2.3,0.5,3.4,1.4,3.4C194.8-182.8,195.2-183.5,195.2-184.8z M195.1-187.6c-0.1-1.1-0.2-1.9-0.4-2.2c-0.2-0.4-0.5-0.6-0.9-0.6
			c-0.4,0-0.7,0.2-0.9,0.6c-0.2,0.3-0.3,1.1-0.4,2.2H195.1z"/>
		<path class="st2" d="M207-191.7v2c-0.3-0.3-0.6-0.5-1-0.5c-1.1,0-1.6,1.2-1.6,3.5c0,2.5,0.5,3.7,1.6,3.7c0.3,0,0.6-0.1,1-0.4v1.8
			c-0.5,0.3-1,0.4-1.6,0.4c-2.1,0-3.2-1.8-3.2-5.4c0-1.9,0.3-3.3,0.8-4.2c0.5-0.9,1.3-1.4,2.4-1.4C206-192.1,206.5-191.9,207-191.7z
			"/>
		<path class="st2" d="M212.3-198.7h2v8c0.6-0.9,1.3-1.4,2.2-1.4c0.9,0,1.5,0.3,1.9,1c0.2,0.4,0.3,1.1,0.3,2.2v7.6h-2l0-7.1
			c0-0.7-0.1-1.2-0.3-1.5c-0.2-0.3-0.5-0.5-0.9-0.5c-0.2,0-0.4,0-0.6,0.1c-0.2,0.1-0.3,0.2-0.4,0.4c-0.1,0.2-0.2,0.4-0.2,0.7
			c0,0.3-0.1,0.6-0.1,1v6.9h-2V-198.7z"/>
		<path class="st2" d="M224.7-191.9h2v1.2c0.6-0.9,1.3-1.4,2.2-1.4c0.9,0,1.5,0.3,1.9,1c0.2,0.4,0.3,1.1,0.3,2.2v7.6h-2l0-7.1
			c0-0.7-0.1-1.2-0.3-1.5c-0.2-0.3-0.5-0.5-0.9-0.5c-0.2,0-0.4,0-0.6,0.1c-0.2,0.1-0.3,0.2-0.4,0.4c-0.1,0.2-0.2,0.4-0.2,0.7
			c0,0.3-0.1,0.6-0.1,1v6.9h-2V-191.9z"/>
		<path class="st2" d="M243.3-186.5c0,3.6-1.1,5.4-3.3,5.4c-2.2,0-3.3-1.8-3.3-5.5c0-3.7,1.1-5.5,3.3-5.5c0.6,0,1.1,0.1,1.5,0.3
			c0.4,0.2,0.8,0.6,1,1c0.3,0.5,0.5,1,0.6,1.7C243.2-188.3,243.3-187.4,243.3-186.5z M241.2-186.5c0-1.4-0.1-2.4-0.3-2.9
			c-0.2-0.6-0.5-0.8-1-0.8c-0.5,0-0.8,0.3-1,0.8c-0.2,0.5-0.3,1.5-0.3,2.9c0,1.4,0.1,2.3,0.3,2.9c0.2,0.5,0.5,0.8,1,0.8
			c0.5,0,0.8-0.3,1-0.8C241.1-184.2,241.2-185.2,241.2-186.5z"/>
		<path class="st2" d="M248.8-198.7h2v17.5h-2V-198.7z"/>
		<path class="st2" d="M263.1-186.5c0,3.6-1.1,5.4-3.3,5.4c-2.2,0-3.3-1.8-3.3-5.5c0-3.7,1.1-5.5,3.3-5.5c0.6,0,1.1,0.1,1.5,0.3
			c0.4,0.2,0.8,0.6,1,1c0.3,0.5,0.5,1,0.6,1.7C263-188.3,263.1-187.4,263.1-186.5z M261-186.5c0-1.4-0.1-2.4-0.3-2.9
			c-0.2-0.6-0.5-0.8-1-0.8c-0.5,0-0.8,0.3-1,0.8c-0.2,0.5-0.3,1.5-0.3,2.9c0,1.4,0.1,2.3,0.3,2.9c0.2,0.5,0.5,0.8,1,0.8
			c0.5,0,0.8-0.3,1-0.8C261-184.2,261-185.2,261-186.5z"/>
		<path class="st2" d="M272.8-191.9h2v11c0,1.3-0.1,2.2-0.4,2.7c-0.5,0.9-1.4,1.4-2.9,1.4c-1,0-1.7-0.3-2.2-0.8
			c-0.6-0.5-0.8-1.3-0.8-2.2l0-0.3h1.9c0,1.1,0.4,1.7,1.3,1.7c0.5,0,0.8-0.1,0.9-0.4c0.2-0.3,0.3-0.8,0.3-1.6v-2
			c-0.4,1-1.1,1.5-1.9,1.5c-0.9,0-1.5-0.4-2-1.3c-0.4-0.9-0.6-2.2-0.6-4c0-1.9,0.2-3.4,0.6-4.3c0.4-0.9,1.1-1.3,2-1.3
			c0.4,0,0.8,0.1,1.1,0.3c0.3,0.2,0.6,0.6,0.9,1.1V-191.9z M272.8-186.5c0-2.5-0.4-3.8-1.3-3.8c-0.4,0-0.7,0.3-0.9,0.9
			c-0.2,0.6-0.3,1.5-0.3,2.7c0,1.3,0.1,2.3,0.3,2.9c0.2,0.6,0.5,0.9,1,0.9c0.4,0,0.8-0.3,0.9-0.8
			C272.7-184.1,272.8-185.1,272.8-186.5z"/>
		<path class="st2" d="M279.7-191.9h2.2l1.6,7.4l1.8-7.4h2l-4.3,15h-2.1l1.6-5.2L279.7-191.9z"/>
		<path class="st2" d="M328.8-197.1h2.1l1.1,7.4l0.2,1.1c0.1,0.6,0.1,1.1,0.2,1.6l0.1,1.3c0,0,0,0.1,0,0.2c0,0.1,0,0.2,0,0.3
			l0.1-0.5c0.1-0.9,0.2-1.7,0.3-2.5c0.1-0.8,0.2-1.4,0.3-2.1l1.1-6.9h1.6l1.1,6.7c0.2,1,0.3,1.9,0.4,2.7c0.1,0.8,0.2,1.6,0.3,2.4
			c0.1-0.8,0.1-1.6,0.2-2.3c0.1-0.8,0.2-1.5,0.3-2.2l0.2-1.1l0.9-6.2h2l-2.8,15.9h-1.7l-1.1-6.9c0,0,0-0.1-0.1-0.3
			c0-0.2-0.1-0.5-0.1-0.9l-0.2-1.6c0-0.1,0-0.3-0.1-0.6c0-0.2-0.1-0.6-0.1-0.9L335-193c0,0.2,0,0.3,0,0.4c0,0.1,0,0.2,0,0.3
			c0,0.5-0.1,0.8-0.1,1.1c0,0.2,0,0.4,0,0.5l-0.2,1.5c0,0.3-0.1,0.6-0.1,0.8c0,0.2,0,0.3-0.1,0.4l-1.2,6.9h-1.7L328.8-197.1z"/>
		<path class="st2" d="M352.1-186.5c0,3.6-1.1,5.4-3.3,5.4c-2.2,0-3.3-1.8-3.3-5.5c0-3.7,1.1-5.5,3.3-5.5c0.6,0,1.1,0.1,1.5,0.3
			c0.4,0.2,0.8,0.6,1,1c0.3,0.5,0.5,1,0.6,1.7C352-188.3,352.1-187.4,352.1-186.5z M350.1-186.5c0-1.4-0.1-2.4-0.3-2.9
			c-0.2-0.6-0.5-0.8-1-0.8c-0.5,0-0.8,0.3-1,0.8c-0.2,0.5-0.3,1.5-0.3,2.9c0,1.4,0.1,2.3,0.3,2.9c0.2,0.5,0.5,0.8,1,0.8
			c0.5,0,0.8-0.3,1-0.8C350-184.2,350.1-185.2,350.1-186.5z"/>
		<path class="st2" d="M357.7-191.9h2v1.3c0.3-0.6,0.7-1,1-1.2c0.3-0.2,0.8-0.4,1.3-0.4v2.1c-0.1,0-0.3,0-0.3,0
			c-0.7,0-1.2,0.2-1.5,0.5c-0.3,0.4-0.4,1-0.4,1.9v6.4h-2V-191.9z"/>
		<path class="st2" d="M367.1-198.7h2v17.5h-2V-198.7z"/>
		<path class="st2" d="M381.2-198.7v17.5h-2v-1.4c-0.3,0.6-0.6,1-0.8,1.2c-0.3,0.2-0.7,0.3-1.1,0.3c-0.9,0-1.5-0.4-1.9-1.4
			c-0.4-0.9-0.6-2.3-0.6-4.2c0-0.9,0.1-1.7,0.2-2.4c0.1-0.7,0.3-1.2,0.5-1.7c0.2-0.4,0.5-0.8,0.8-1c0.3-0.2,0.7-0.3,1.2-0.3
			c0.4,0,0.8,0.1,1.1,0.3c0.1,0.1,0.3,0.2,0.4,0.4c0.1,0.2,0.3,0.4,0.4,0.7v-8H381.2z M376.7-186.6c0,1.4,0.1,2.4,0.3,2.9
			c0.2,0.6,0.5,0.8,1,0.8c0.4,0,0.8-0.3,1-0.9c0.2-0.6,0.3-1.6,0.3-2.8c0-1.3-0.1-2.2-0.3-2.9c-0.2-0.6-0.5-0.9-1-0.9
			c-0.5,0-0.8,0.3-1,0.8C376.8-189,376.7-188,376.7-186.6z"/>
		<path class="st2" d="M403.2-187.3l1.4,1.1l-1.7,2.4l1.7,2.7h-2.3l-0.8-1.2c-0.8,0.9-1.7,1.3-2.7,1.3c-1,0-1.8-0.4-2.5-1.1
			c-0.7-0.8-1-1.7-1-2.7c0-0.7,0.2-1.4,0.5-2c0.3-0.6,0.9-1.4,1.7-2.2c-0.8-1.3-1.3-2.6-1.3-3.8c0-0.9,0.3-1.6,0.9-2.2
			c0.6-0.6,1.3-0.8,2.2-0.8c0.9,0,1.6,0.3,2.2,0.8c0.5,0.5,0.8,1.2,0.8,2.1c0,0.7-0.2,1.4-0.5,2c-0.2,0.3-0.4,0.6-0.7,1
			c-0.3,0.4-0.7,0.8-1.2,1.3l2.1,3.4L403.2-187.3z M398.3-187.6c-0.8,0.9-1.2,1.7-1.2,2.5c0,0.6,0.2,1.1,0.5,1.6
			c0.3,0.4,0.8,0.6,1.3,0.6c0.5,0,1.1-0.3,1.6-1L398.3-187.6z M398.9-190.5c0.3-0.3,0.5-0.6,0.7-0.8c0.2-0.2,0.3-0.4,0.5-0.6
			c0.2-0.4,0.3-0.7,0.3-1.2c0-0.4-0.1-0.7-0.3-0.9c-0.2-0.2-0.5-0.3-0.8-0.3c-0.3,0-0.7,0.1-0.9,0.4c-0.2,0.3-0.4,0.6-0.4,1
			C398-192.5,398.3-191.7,398.9-190.5z"/>
		<path class="st2" d="M418.1-197.1h2.1v14.1h3.5v1.8h-5.6V-197.1z"/>
		<path class="st2" d="M435-186.5c0,3.6-1.1,5.4-3.3,5.4c-2.2,0-3.3-1.8-3.3-5.5c0-3.7,1.1-5.5,3.3-5.5c0.6,0,1.1,0.1,1.5,0.3
			c0.4,0.2,0.8,0.6,1,1c0.3,0.5,0.5,1,0.6,1.7C435-188.3,435-187.4,435-186.5z M433-186.5c0-1.4-0.1-2.4-0.3-2.9
			c-0.2-0.6-0.5-0.8-1-0.8c-0.5,0-0.8,0.3-1,0.8c-0.2,0.5-0.3,1.5-0.3,2.9c0,1.4,0.1,2.3,0.3,2.9c0.2,0.5,0.5,0.8,1,0.8
			s0.8-0.3,1-0.8C432.9-184.2,433-185.2,433-186.5z"/>
		<path class="st2" d="M445-191.7v2c-0.3-0.3-0.6-0.5-1-0.5c-1.1,0-1.6,1.2-1.6,3.5c0,2.5,0.5,3.7,1.6,3.7c0.3,0,0.6-0.1,1-0.4v1.8
			c-0.5,0.3-1,0.4-1.6,0.4c-2.1,0-3.2-1.8-3.2-5.4c0-1.9,0.3-3.3,0.8-4.2c0.5-0.9,1.3-1.4,2.4-1.4C444-192.1,444.5-191.9,445-191.7z
			"/>
		<path class="st2" d="M456.5-191.9v10.6h-2v-1.4c-0.3,0.6-0.6,1-0.8,1.2c-0.3,0.2-0.7,0.3-1.1,0.3c-0.9,0-1.5-0.5-1.9-1.4
			c-0.4-0.9-0.6-2.3-0.6-4.3c0-1.8,0.2-3.2,0.6-4.1c0.4-0.9,1.1-1.3,1.9-1.3c0.8,0,1.5,0.5,2,1.4v-1.2H456.5z M452.1-186.6
			c0,1.4,0.1,2.4,0.3,2.9c0.2,0.6,0.5,0.8,1,0.8c0.4,0,0.8-0.3,0.9-0.9c0.2-0.6,0.3-1.6,0.3-2.8c0-1.3-0.1-2.2-0.3-2.9
			c-0.2-0.6-0.5-0.9-0.9-0.9c-0.5,0-0.8,0.3-1,0.8C452.2-189,452.1-188,452.1-186.6z"/>
		<path class="st2" d="M462.5-198.7h2v17.5h-2V-198.7z"/>
		<path class="st2" d="M478.7-197.1h2l2.1,6.3c0.6,1.8,1.2,3.7,1.6,5.7c-0.2-1.2-0.3-2.3-0.4-3.3c-0.1-1-0.1-1.9-0.1-2.8v-5.9h2.1
			v15.9h-2l-2.4-7.1c-0.2-0.7-0.4-1.3-0.6-2c-0.2-0.7-0.4-1.4-0.5-2.2c0-0.1,0-0.2-0.1-0.3c0-0.1-0.1-0.3-0.1-0.5
			c0,0.2,0,0.3,0.1,0.5c0,0.1,0,0.2,0,0.3l0.1,1.6l0.1,2c0,0.1,0,0.2,0,0.4c0,0.2,0,0.3,0,0.5l0.1,6.9h-2.1V-197.1z"/>
		<path class="st2" d="M496.3-184.8h1.8c-0.1,2.5-1.2,3.8-3.1,3.8c-0.6,0-1.1-0.1-1.5-0.3c-0.4-0.2-0.7-0.5-1-1
			c-0.3-0.4-0.5-1-0.6-1.7c-0.1-0.7-0.2-1.5-0.2-2.4c0-1.9,0.3-3.3,0.8-4.2c0.5-0.9,1.3-1.4,2.4-1.4c2.1,0,3.2,1.9,3.2,5.6v0.2h-4.5
			c0,2.3,0.5,3.4,1.4,3.4C495.9-182.8,496.3-183.5,496.3-184.8z M496.2-187.6c-0.1-1.1-0.2-1.9-0.4-2.2c-0.2-0.4-0.5-0.6-0.9-0.6
			c-0.4,0-0.7,0.2-0.9,0.6c-0.2,0.3-0.3,1.1-0.4,2.2H496.2z"/>
		<path class="st2" d="M502.7-191.9h2.1l0.6,3.4c0.1,0.7,0.2,1.3,0.3,2c0.1,0.6,0.2,1.3,0.2,1.9l0,0.4l0-0.4
			c0.1-0.5,0.1-0.9,0.2-1.4c0.1-0.4,0.1-0.8,0.2-1.1l0.2-0.8l0.7-3.9h1.4l0.7,3.9l0.2,1.2c0,0.2,0.1,0.5,0.1,0.9
			c0,0.3,0.1,0.8,0.1,1.2l0,0.4c0.1-1.3,0.3-2.5,0.5-3.7l0.7-3.9h1.9l-2.5,10.6h-1.4l-0.8-4.1c-0.1-0.5-0.2-1-0.2-1.5
			c-0.1-0.5-0.1-1.1-0.2-1.6c0-0.1,0-0.1,0-0.2c0-0.1,0-0.2,0-0.3c0,0.6-0.1,1.2-0.2,1.8c-0.1,0.6-0.2,1.2-0.3,1.8l-0.8,4.2h-1.4
			L502.7-191.9z"/>
		<path class="st2" d="M522.3-191.7v1.8c-0.5-0.4-1-0.5-1.5-0.5c-0.2,0-0.3,0-0.5,0.1c-0.2,0.1-0.3,0.1-0.4,0.3
			c-0.1,0.1-0.2,0.2-0.3,0.4c-0.1,0.1-0.1,0.3-0.1,0.5c0,0.5,0.5,1.1,1.4,1.8c0.4,0.3,0.7,0.6,0.9,0.8c0.2,0.2,0.4,0.5,0.6,0.7
			c0.3,0.4,0.4,1,0.4,1.6c0,1-0.3,1.7-0.8,2.3c-0.5,0.6-1.3,0.8-2.2,0.8c-0.6,0-1.1-0.2-1.7-0.5v-1.9c0.6,0.4,1.1,0.6,1.6,0.6
			c0.9,0,1.3-0.4,1.3-1.3c0-0.3-0.1-0.6-0.2-0.9c-0.1-0.1-0.2-0.2-0.4-0.4c-0.2-0.2-0.4-0.3-0.6-0.5c-0.8-0.6-1.4-1.2-1.7-1.6
			c-0.3-0.5-0.4-1-0.4-1.6c0-0.9,0.3-1.6,0.8-2.1c0.5-0.5,1.2-0.8,2.1-0.8C521.2-192.1,521.8-192,522.3-191.7z"/>
	</g>
	<g class="st1">
		
			<image style="overflow:visible;opacity:0.49;" width="635" height="163" xlink:href="A3C6A09B282DBC5E.png"  transform="matrix(1 0 0 1 -92.2139 -353.4375)">
		</image>
		<g>
			<g>
				<g>
					<g>
						<path class="st2" d="M-36.9-339.1h-40.4v84.6h22.9v-32.1l0,0l0,0h16.3v-20.3h-16.3v-12l0,0l0,0h17.5v-2.2l0,0l0,0V-339.1
							L-36.9-339.1z M-75.2-337h36.1v16h-15.4h-2.2v2.2v12v2.2h2.2h14.2v16h-14.2h-2.2v2.2v30h-18.6V-337L-75.2-337z"/>
					</g>
					<g>
						<path class="st2" d="M-8.1-339.1h-23.4v84.6h22.7v-29.6l-0.2-5.6l0,0l0,0c0.4,1.2,0.7,2.2,1,3c0.3,0.8,0.5,1.5,0.6,2L4-254.5
							h22.3l0,0h0.2l0,0h2.2l-17-35.2l0,0l0,0c8.7-3.9,13.1-11,13.1-21.2c0-9.6-3.3-17-9.8-22.1C9.9-337.1,2.2-339.1-8.1-339.1
							L-8.1-339.1z M-29.4-337h21.3c9.8,0,17.1,1.9,21.8,5.6c3,2.4,5.2,5.3,6.7,8.6c1.5,3.4,2.3,7.4,2.3,11.8
							c0,9.4-3.9,15.7-11.8,19.2l-2,0.9l1,2l15.5,32.1H5.5l-10.7-28.6c-0.1-0.6-0.3-1.2-0.6-2.1c-0.3-0.8-0.6-1.8-1-3l-4.2,0.8
							l0.2,5.6v27.4h-18.4V-337L-29.4-337z M-10.9-284C-10.9-284-10.9-284-10.9-284L-10.9-284L-10.9-284z M-7.8-323.4h-0.8h-2.2v2.2
							v20.2v2.2h2.2h1.5c3.3,0,6-1.3,8.2-3.8c2.1-2.4,3.2-5.5,3.2-9.1c0-3.8-1.1-6.7-3.1-8.7C-1-322.4-4-323.4-7.8-323.4L-7.8-323.4
							z M-8.6-321.2h0.8c6.6,0,9.9,3.2,9.9,9.5l0,0l0,0c0,3.1-0.9,5.7-2.6,7.7c-1.8,2-3.9,3-6.6,3h-1.5V-321.2L-8.6-321.2
							L-8.6-321.2z"/>
					</g>
					<g>
						<path class="st2" d="M74.4-339.1H31.9v84.6h42.5v-20.3H54.7v-11.8l0,0l0,0h17.6v-20.3H54.7v-12l0,0l0,0h19.6v-2.2l0,0l0,0
							V-339.1L74.4-339.1z M34-337h38.2v16H54.7h-2.2v2.2v12v2.2h2.2h15.4v16H54.7h-2.2v2.2v11.8v2.2h2.2h17.5v16H34V-337L34-337z"
							/>
					</g>
					<g>
						<path class="st2" d="M124.2-339.1H81.8v84.6h42.5v-20.3h-19.6v-11.8l0,0l0,0h17.6v-20.3h-17.6v-12l0,0l0,0h19.6v-2.2l0,0l0,0
							V-339.1L124.2-339.1z M83.9-337h38.2v16h-17.5h-2.2v2.2v12v2.2h2.2h15.4v16h-15.4h-2.2v2.2v11.8v2.2h2.2h17.5v16H83.9V-337
							L83.9-337z"/>
					</g>
				</g>
				<g>
					<path class="st3" d="M-75.6-243.5h2.5v7.2h3.7v-7.2h2.5v18.5h-2.5v-9.2h-3.7v9.2h-2.5V-243.5z"/>
					<path class="st3" d="M-33.6-231.1c0,4.2-1.3,6.3-3.9,6.3c-2.6,0-3.9-2.1-3.9-6.4c0-4.3,1.3-6.4,3.9-6.4c0.7,0,1.2,0.1,1.7,0.4
						c0.5,0.3,0.9,0.7,1.2,1.2c0.3,0.5,0.6,1.2,0.7,2C-33.7-233.2-33.6-232.2-33.6-231.1z M-36-231.2c0-1.6-0.1-2.8-0.3-3.4
						c-0.2-0.6-0.6-1-1.1-1c-0.5,0-0.9,0.3-1.2,1c-0.2,0.6-0.3,1.8-0.3,3.3c0,1.6,0.1,2.7,0.3,3.3c0.2,0.6,0.6,1,1.2,1
						c0.5,0,0.9-0.3,1.1-0.9C-36.1-228.5-36-229.6-36-231.2z"/>
					<path class="st3" d="M-8.3-237.4H-6v8.3c0,0.8,0.1,1.3,0.3,1.6c0.2,0.3,0.6,0.5,1.1,0.5c0.5,0,0.9-0.1,1.1-0.4
						c0.2-0.3,0.3-0.8,0.3-1.6v-1v-7.4h2.3v7.4c0,1.7-0.1,2.9-0.4,3.5c-0.5,1.1-1.6,1.7-3.3,1.7c-1.3,0-2.3-0.3-2.8-1
						c-0.6-0.7-0.8-1.8-0.8-3.4V-237.4z"/>
					<path class="st3" d="M29.6-237.2v2.2c-0.6-0.4-1.1-0.6-1.8-0.6c-0.2,0-0.4,0-0.6,0.1c-0.2,0.1-0.3,0.2-0.5,0.3
						c-0.1,0.1-0.2,0.3-0.3,0.4c-0.1,0.2-0.1,0.4-0.1,0.5c0,0.6,0.5,1.3,1.6,2.1c0.4,0.3,0.8,0.6,1.1,0.9c0.3,0.3,0.5,0.6,0.7,0.8
						c0.3,0.5,0.5,1.1,0.5,1.9c0,1.1-0.3,2-1,2.7c-0.6,0.7-1.5,1-2.6,1c-0.7,0-1.3-0.2-2-0.6v-2.2c0.7,0.5,1.3,0.7,1.9,0.7
						c1,0,1.6-0.5,1.6-1.5c0-0.4-0.1-0.7-0.3-1c-0.1-0.1-0.2-0.3-0.4-0.5c-0.2-0.2-0.4-0.4-0.7-0.6c-1-0.7-1.6-1.4-2-1.9
						c-0.3-0.5-0.5-1.2-0.5-1.9c0-1,0.3-1.8,0.9-2.5c0.6-0.6,1.4-0.9,2.4-0.9C28.3-237.7,28.9-237.5,29.6-237.2z"/>
					<path class="st3" d="M55.7-240.9H58v3.5h1.2v1.8H58v10.6h-2.3v-10.6h-1.3v-1.8h1.3V-240.9z"/>
					<path class="st3" d="M91.5-231.1c0,4.2-1.3,6.3-3.9,6.3c-2.6,0-3.9-2.1-3.9-6.4c0-4.3,1.3-6.4,3.9-6.4c0.7,0,1.3,0.1,1.7,0.4
						c0.5,0.3,0.9,0.7,1.2,1.2c0.3,0.5,0.6,1.2,0.7,2C91.4-233.2,91.5-232.2,91.5-231.1z M89.1-231.2c0-1.6-0.1-2.8-0.3-3.4
						c-0.2-0.6-0.6-1-1.2-1c-0.5,0-0.9,0.3-1.2,1c-0.2,0.6-0.3,1.8-0.3,3.3c0,1.6,0.1,2.7,0.3,3.3c0.2,0.6,0.6,1,1.2,1
						c0.5,0,0.9-0.3,1.1-0.9C89-228.5,89.1-229.6,89.1-231.2z"/>
					<path class="st3" d="M116.9-237.4h2.3v1.4c0.7-1.1,1.5-1.6,2.5-1.6c1,0,1.7,0.4,2.2,1.2c0.2,0.4,0.4,1.3,0.4,2.6v8.8h-2.3
						l0-8.3c0-0.8-0.1-1.4-0.3-1.8c-0.2-0.4-0.5-0.5-1-0.5c-0.3,0-0.5,0-0.7,0.1c-0.2,0.1-0.3,0.2-0.4,0.4c-0.1,0.2-0.2,0.5-0.2,0.8
						c-0.1,0.3-0.1,0.7-0.1,1.2v8h-2.3V-237.4z"/>
				</g>
				<line class="st4" x1="-77" y1="-212.7" x2="125.8" y2="-212.7"/>
				<path class="st2" d="M489.3-341.4c-10.9,0-19.9,3.2-27.2,9.7c-7.3,6.4-10.9,14.4-10.9,23.9c0,14.1,8.7,24.9,26.2,32.2l12.3,5.1
					c3.2,1.4,5.9,2.8,8.2,4.3c2.3,1.5,4.2,3.1,5.7,4.9c1.5,1.7,2.5,3.6,3.2,5.7c0.7,2.1,1,4.3,1,6.8c0,6.1-2,11.2-5.9,15.2
					c-3.9,4-8.9,6-14.9,6c-7.6,0-13.3-2.7-17.3-8.2c-2.2-2.8-3.7-8-4.6-15.5l-19.4,4.3c1.8,11.8,6.2,21.1,13.2,27.6
					c7.2,6.6,16.3,9.9,27.3,9.9c11.6,0,21.3-3.8,29.1-11.5c7.7-7.6,11.5-17.3,11.5-29c0-8.7-2.4-16.1-7.2-22.1
					c-4.8-6-12.3-11.1-22.6-15.3l-12.7-5.2c-9.2-3.8-13.8-8.8-13.8-15c0-4.5,1.8-8.2,5.3-11.2c3.5-3,7.9-4.5,13.2-4.5
					c4.3,0,7.9,0.9,10.6,2.6c2.6,1.5,5.4,4.8,8.3,9.9l15.6-9.2C515.4-334.3,503.9-341.4,489.3-341.4 M406.2-341.4
					c-10.9,0-19.9,3.2-27.2,9.7c-7.3,6.4-10.9,14.4-10.9,23.9c0,14.1,8.7,24.9,26.2,32.2l12.3,5.1c3.2,1.4,5.9,2.8,8.2,4.3
					c2.3,1.5,4.2,3.1,5.6,4.9c1.5,1.7,2.5,3.6,3.2,5.7c0.7,2.1,1,4.3,1,6.8c0,6.1-2,11.2-5.9,15.2c-4,4-8.9,6-14.9,6
					c-7.6,0-13.3-2.7-17.3-8.2c-2.2-2.8-3.7-8-4.6-15.5l-19.4,4.3c1.8,11.8,6.2,21.1,13.2,27.6c7.2,6.6,16.3,9.9,27.3,9.9
					c11.6,0,21.3-3.8,29.1-11.5c7.7-7.6,11.5-17.3,11.5-29c0-8.7-2.4-16.1-7.2-22.1c-4.8-6-12.3-11.1-22.6-15.3l-12.7-5.2
					c-9.2-3.8-13.8-8.8-13.8-15c0-4.5,1.8-8.2,5.3-11.2c3.5-3,7.9-4.5,13.2-4.5c4.3,0,7.9,0.9,10.6,2.6c2.6,1.5,5.4,4.8,8.3,9.9
					l15.5-9.2C432.3-334.3,420.9-341.4,406.2-341.4 M362-338.8h-70v127h70v-18.1h-50.9v-42.5h49.4v-18.1h-49.4v-30.3H362V-338.8z
					 M225.7-320.7h6.9c17.8,0,26.7,6.5,26.7,19.5c0,13.9-9.1,20.8-27.4,20.8h-6.1V-320.7z M270.3-278.3c5.2-6.5,7.8-14.2,7.8-23.2
					c0-11.5-4.1-20.8-12.4-27.8c-7.5-6.3-19.7-9.5-36.5-9.5h-22.5v127h19.1v-52h3.5l36.5,52h23.5l-39.5-54.1
					C258.3-267.7,265.1-271.9,270.3-278.3 M151.3-321h6.4c18.3,0,27.5,6.5,27.5,19.4c0,13.4-8.9,20.1-26.7,20.1h-7.2V-321z
					 M160.2-263.4c13.3,0,23.8-3.4,31.7-10.2c7.8-6.8,11.7-16,11.7-27.6c0-10.9-3.7-19.8-11-27c-4.2-4.1-9-6.9-14.5-8.4
					c-5.4-1.5-13.5-2.2-24.2-2.2h-21.8v127l19.1,0v-51.7H160.2z"/>
			</g>
		</g>
	</g>
</g>
<path class="st5" d="M-103.5,214c-1.4-2.6-1.1-4.8-2.9-8.2s-3.9-12.2-5.6-16.1c-1.8-3.9-0.6-9.3-1.3-12.1c-0.6-2.7,0.5-6.1,0.8-8.9
	c0.3-2.7-1-6.6-0.2-9.3c0.8-2.7-0.5-4.7,1.6-8.2c2.1-3.5,6.6-9.3,8-11.1c1.4-1.8,10.3-12.1,12.7-13.2c2.4-1.1,5.2-2.1,5.6-3.2
	c0.5-1.1,1.8-2.1,2.6-2.6c0.8-0.5,2.3-1.6,2.4-2.7c0.2-1.1,10.8-7.6,12.2-8.2c1.4-0.6,2.4,2.1,3.7,1.4c1.3-0.6,4.7-2.4,5.3-3.5
	c0.6-1.1,3.2-2.1,3.7-2.6c1.2-1,3.5-3.1,5-4.4c1.5-1.3,4.3-4.1,6-4.1c1.7,0,0.9-0.9,3.2-1.9c2.4-1.1,8.8-3.2,10.3-5.6
	c1.5-2.4,2.6-6.5,3.9-6.7c1.3-0.2,2.6-1.1,2.6-1.1s6.7-6.3,9.7-8.8S-0.7,60.2,6.4,58c7.1-2.2,16-4.5,19.4-5.8
	c3.4-1.3,25.7-10.1,29.5-11.4c3.9-1.3,20.9-8.2,24.6-9.9c3.7-1.7,17.9-9.5,20-11.6c2.2-2.2,12.5-7.3,12.5-7.3L131.2,75
	c0,0-6.5-0.6-11.6,0.9c-5.2,1.5-20.3,8-24.6,10.6c-4.3,2.6-22.4,9.7-22.4,9.7s5.4,8.6,8,10.6c2.6,1.9,7.1,7.5,8.2,9.1
	c1.1,1.5,8.6,9.7,9.1,11.4c0.4,1.7,2.6,6,2.6,6s6.3-1.3,7.8-2.6c1.5-1.3,3.9-1.5,5.4-1.7c1.5-0.2,4.5-1.9,5.4-2.8
	c0.9-0.9,3-1.5,4.3-1.9c1.3-0.4,3-0.6,3.7-1.5c0.6-0.9,1.3-1.1,2.6-1.5c1.3-0.4,2.4-0.2,2.8-1.3c0.4-1.1,3-2.2,3-2.2l1.5-0.4
	c0,0,1.3-4.1,1.3-6c0-1.9,1.1-6,0.2-10.1c-0.9-4.1-3.2-17-3.9-18.8c-0.6-1.7-2.2-6.5-2.2-6.5s3.7-2.8,8.4-2.6
	c4.7,0.2,202.5,18.9,202.5,18.9s2,10.3-1.3,14s-9,11.3-9,11.3s4.3,12,5,19s3,25.3,3.3,32c0.3,6.7,0,19-0.3,24.7
	c-0.3,5.7-0.7,20-0.3,23C340.8,219.2-103.5,214-103.5,214z"/>
<path d="M406.6,0.3v77.3h-79.3V0.3h-43v20.4C271.4,7.8,252.1,0.3,227.9,0.3H0v195.5h43v-75.7h93.3V81H43V39.4h105v156.4h43v-58.6
	h32.7c24.4,0,46.1-7.3,60.6-21.6v80.2h43v-78.5h79.3v78.5h43V0.3H406.6z M259.1,69.2c0,16.8-12.6,29.6-34.1,29.6H191V39.1h33.2
	c21.5,0,34.9,10.3,34.9,29.6V69.2z"/>
<g>
	<path d="M292.9,203.4h-6.3v3.7h5.6v1.1h-5.6v4.5h-1.2v-10.4h7.5V203.4z"/>
	<path d="M301.7,212.7l-3-4h-3v4h-1.2v-10.4h4.5c2.3,0,3.7,1.2,3.7,3.1c0,1.7-1.2,2.7-2.8,3l3.2,4.2H301.7z M298.9,203.4h-3.2v4.2
		h3.2c1.6,0,2.7-0.8,2.7-2.1C301.6,204.2,300.6,203.4,298.9,203.4z"/>
	<path d="M312.2,203.4h-6.3v3.5h5.7v1.1h-5.7v3.6h6.4v1.1h-7.6v-10.4h7.5V203.4z"/>
	<path d="M321.5,203.4h-6.3v3.5h5.7v1.1h-5.7v3.6h6.4v1.1H314v-10.4h7.5V203.4z"/>
	<path d="M330.9,209h-2.5v3.7h-1.2v-10.4h3.9c2.3,0,3.9,1.2,3.9,3.3C334.9,207.9,333.1,209,330.9,209z M331,203.4h-2.6v4.6h2.6
		c1.7,0,2.8-0.9,2.8-2.3C333.8,204.2,332.6,203.4,331,203.4z"/>
	<path d="M343.6,212.7l-3-4h-3v4h-1.2v-10.4h4.5c2.3,0,3.7,1.2,3.7,3.1c0,1.7-1.2,2.7-2.8,3l3.2,4.2H343.6z M340.9,203.4h-3.2v4.2
		h3.2c1.6,0,2.7-0.8,2.7-2.1C343.5,204.2,342.5,203.4,340.9,203.4z"/>
	<path d="M354.1,203.4h-6.3v3.5h5.7v1.1h-5.7v3.6h6.4v1.1h-7.6v-10.4h7.5V203.4z"/>
	<path d="M359.7,206.9c2.3,0.5,3.4,1.3,3.4,2.9c0,1.8-1.5,2.9-3.5,2.9c-1.6,0-3-0.5-4.2-1.7l0.7-0.9c1.1,1,2.1,1.5,3.6,1.5
		c1.4,0,2.3-0.7,2.3-1.8c0-1-0.5-1.5-2.7-2c-2.4-0.5-3.5-1.3-3.5-3c0-1.7,1.4-2.8,3.4-2.8c1.5,0,2.6,0.4,3.6,1.3l-0.7,0.9
		c-1-0.8-1.9-1.1-3-1.1c-1.3,0-2.2,0.7-2.2,1.7C356.8,205.9,357.4,206.4,359.7,206.9z"/>
	<path d="M368.4,206.9c2.3,0.5,3.4,1.3,3.4,2.9c0,1.8-1.5,2.9-3.5,2.9c-1.6,0-3-0.5-4.2-1.7l0.7-0.9c1.1,1,2.1,1.5,3.6,1.5
		c1.4,0,2.3-0.7,2.3-1.8c0-1-0.5-1.5-2.7-2c-2.4-0.5-3.5-1.3-3.5-3c0-1.7,1.4-2.8,3.4-2.8c1.5,0,2.6,0.4,3.6,1.3l-0.7,0.9
		c-1-0.8-1.9-1.1-3-1.1c-1.3,0-2.2,0.7-2.2,1.7C365.6,205.9,366.1,206.4,368.4,206.9z"/>
	<path d="M383.7,212.7v-4.2h-4.2v4.2h-2.3v-10.4h2.3v4.1h4.2v-4.1h2.3v10.4H383.7z"/>
	<path d="M392.9,212.8c-3.2,0-5.5-2.4-5.5-5.3v0c0-2.9,2.3-5.4,5.5-5.4c3.2,0,5.5,2.4,5.5,5.3v0
		C398.4,210.4,396.1,212.8,392.9,212.8z M396,207.5c0-1.8-1.3-3.3-3.1-3.3c-1.8,0-3.1,1.5-3.1,3.2v0c0,1.8,1.3,3.3,3.1,3.3
		C394.8,210.7,396,209.3,396,207.5L396,207.5z"/>
	<path d="M404.2,212.8c-2.8,0-4.5-1.6-4.5-4.6v-5.9h2.3v5.9c0,1.7,0.8,2.6,2.2,2.6c1.4,0,2.2-0.8,2.2-2.5v-5.9h2.3v5.9
		C408.7,211.3,407,212.8,404.2,212.8z"/>
	<path d="M414.2,212.8c-1.6,0-3.2-0.5-4.4-1.7l1.3-1.6c0.9,0.8,1.9,1.3,3.1,1.3c0.9,0,1.5-0.4,1.5-1v0c0-0.6-0.4-0.9-2.1-1.3
		c-2.1-0.5-3.4-1.1-3.4-3.2v0c0-1.9,1.5-3.1,3.6-3.1c1.5,0,2.8,0.5,3.9,1.3l-1.2,1.7c-0.9-0.6-1.8-1-2.7-1c-0.9,0-1.3,0.4-1.3,0.9v0
		c0,0.7,0.4,0.9,2.2,1.4c2.1,0.5,3.3,1.3,3.3,3.1v0C418,211.7,416.4,212.8,414.2,212.8z"/>
	<path d="M423.8,204.4v8.3h-2.3v-8.3h-3.2v-2.1h8.6v2.1H423.8z"/>
	<path d="M432.7,212.8c-3.2,0-5.5-2.4-5.5-5.3v0c0-2.9,2.3-5.4,5.5-5.4c3.2,0,5.5,2.4,5.5,5.3v0C438.3,210.4,436,212.8,432.7,212.8z
		 M435.9,207.5c0-1.8-1.3-3.3-3.1-3.3s-3.1,1.5-3.1,3.2v0c0,1.8,1.3,3.3,3.1,3.3C434.6,210.7,435.9,209.3,435.9,207.5L435.9,207.5z"
		/>
	<path d="M447,212.7l-5-6.6v6.6h-2.3v-10.4h2.1l4.9,6.4v-6.4h2.3v10.4H447z"/>
</g>
</svg>
