<?xml version="1.0" encoding="utf-8"?>
<!-- Generator: Adobe Illustrator 18.0.0, SVG Export Plug-In . SVG Version: 6.00 Build 0)  -->
<!DOCTYPE svg PUBLIC "-//W3C//DTD SVG 1.1//EN" "http://www.w3.org/Graphics/SVG/1.1/DTD/svg11.dtd">
<svg version="1.1" id="Layer_1" xmlns="http://www.w3.org/2000/svg" xmlns:xlink="http://www.w3.org/1999/xlink" x="0px" y="0px"
	 viewBox="0 0 99.2 154.3" enable-background="new 0 0 99.2 154.3" xml:space="preserve">
<g>
	<polygon fill="#FCD1B9" points="6.4,74.8 0,55.1 2.2,34.5 12.5,16.5 29.3,4.3 49.6,0 69.9,4.3 86.7,16.5 97,34.5 99.2,55.1 
		92.8,74.8 49.6,154.3 	"/>
	<g>
		<polygon fill="#010101" points="32.3,39.6 28.9,38.7 26,36.4 24.4,33.1 24.2,29.4 25.5,26 28.1,23.3 31.5,22 35.2,22.2 38.5,23.9 
			40.7,26.6 39.3,27.7 37.4,25.3 34.8,24 31.8,23.8 29.1,24.9 27,27 26,29.7 26.1,32.6 27.5,35.2 29.7,37.1 32.7,37.9 		"/>
		<path fill="#010101" d="M60.4,73.9h0.7l0.4,0.1l0.4,0.2l0.3,0.3l0.2,0.5l0,0.5L62.2,76l-0.3,0.3l-0.4,0.2l-0.4,0.1h-0.7l-22,0
			h-0.7l-0.4-0.1l-0.4-0.2L36.5,76l-0.2-0.5l0-0.5l0.2-0.5l0.3-0.3l0.4-0.2l0.4-0.1h0.7h9.9V56.3l-1.1-3.8L30.3,31.3l0.7-1.5h18.1
			h0.4h18.1l0.7,1.5L51.6,52.5l-1.1,3.8v17.5L60.4,73.9z"/>
	</g>
</g>
</svg>
