<?xml version="1.0" encoding="utf-8"?>
<!-- Generator: Adobe Illustrator 20.1.0, SVG Export Plug-In . SVG Version: 6.00 Build 0)  -->
<svg version="1.1" xmlns="http://www.w3.org/2000/svg" xmlns:xlink="http://www.w3.org/1999/xlink" x="0px" y="0px"
	 viewBox="0 0 1000 1000" style="enable-background:new 0 0 1000 1000;" xml:space="preserve">
<style type="text/css">
	.st0{fill:#00FFF2;}
</style>
<g id="Layer_2">
</g>
<g id="Layer_1">
	<g>
		<path class="st0" d="M441.5,343.2h30.2l13,5.1l7.8,7.9l5,9.9l2.4,9.9V391l-2.4,9.9l-5,9.9l-7.8,7.9l-13,5.1h-30.2V343.2z
			 M469.4,411.6l8.3-3.5l4.9-4.9l3.1-6.3l2.2-7.8v-11.2l-2-7.8l-3.3-6.6l-4.9-4.8l-8.2-3.4h-15.6v56.3H469.4z M559.1,403.6h-28
			l-7,20.2h-13l29.3-80.5h9.4l29.3,80.5h-13L559.1,403.6z M535.3,391.4h19.6l-9.7-28L535.3,391.4z M629,343.2h14.6l-26,41.7v38.8
			h-12.2v-38.8l-26-41.7h14.6l17.6,29.3L629,343.2z"/>
		<path class="st0" d="M162.6,783.1C17.7,610.3,26.4,351.6,188.8,189.2S609.9,18.1,782.6,163l37.8-37.8
			C731.2,48.8,618.8,7.1,500,7.1c-131.8,0-255.7,51.3-348.9,144.5C58,244.8,6.6,368.7,6.6,500.4c0,118.8,41.7,231.2,118.2,320.4
			L162.6,783.1z"/>
		<g>
			<g>
				<polygon class="st0" points="798.9,369.6 795.8,363.5 791.1,358.9 784.3,355.8 776.7,355.8 770,358.9 765.3,363.5 762.2,369.6 
					760.7,376.8 760.7,390.2 762.1,396.7 765.5,403.1 769.9,407.7 777,410.9 784.3,410.9 791.2,407.7 795.7,403.2 798.9,397 
					800.4,389.9 800.4,376.5 				"/>
				<polygon class="st0" points="871.4,358.2 866,356.5 847.1,356.5 847.1,378.5 867.2,378.5 872.5,375.9 875,372.4 876.6,366.9 
					875.1,361.8 				"/>
			</g>
			<path class="st0" d="M875.2,179.1L711.3,343H734v13.6h-36.3h0v0v17.5h25.8v13.7h-25.8v35.9h-13.7v-53.5L571.8,482.5l27.5,40
				v-56.1h13.8v80.7h-13.2l-0.2-0.4l-36.3-53.1v53.5h-13.8v-42.4l-370,370c89.3,76.5,201.6,118.2,320.4,118.2
				c131.8,0,255.7-51.3,348.9-144.5c93.2-93.2,144.5-217.1,144.5-348.9C993.4,380.8,951.6,268.4,875.2,179.1z M653.4,547.1h-13.7
				v-80.7h13.7V547.1z M738.7,520.9l-1.3,7.1l-5.1,8.4l-8.1,7l-10.1,4.5l-13.3-0.1l-12.2-5.4l-7.8-7.9l-4.8-9.9l-2.2-9.6l0-16.5
				l2.1-9.9l4.9-10.1l8.3-7.9l12-5.2l12.6,0.1l12,4.5l5.2,4l6,7.2l-10.3,8.9l-4.7-5.9l-3.4-2.5l-7.3-2.5h-7.7l-6.7,3.1l-4.7,4.7
				l-3.1,6l-1.5,7.1l0,13.4l1.5,6.9l3.2,6.2l4.5,4.5l6.8,3.2h7.9l5.4-2.4l4.4-3.7l3-4.9l0.7-3.2l0-2.6h-18.6v-13.6h32.3V520.9z
				 M754,411.2l-4.9-9.9l-2.2-9.6l0-16.5l2.1-9.9l5-10.1l8.3-7.9l11.9-5.2l12.9,0.1l11.9,5.3l8.2,8l4.7,9.7l2.2,9.9l0,16.5l-2.1,9.6
				l-5,10.3l-7.8,7.9l-12.2,5.3l-13.1-0.1l-12.2-5.4L754,411.2z M820,547.1h-13.8v-35.9h-29.6v35.9h-13.7v-80.7h13.7v31.1h29.6
				v-31.1H820V547.1z M833.4,343l34.6,0l10.6,2.7l8.8,8.8l0.1,0.2l3.4,11.9l-3.2,11.6l-5.8,8.5l-4.8,2.4l15.3,34.6h-15.2l-13.8-31.6
				h-16.3v31.6h-13.7V343z M891.7,479.9h-20.6v67.2h-13.8v-67.2h-20.1v-13.6h54.5V479.9z"/>
		</g>
	</g>
</g>
</svg>
