<?xml version="1.0" encoding="utf-8"?>
<!-- Generator: Adobe Illustrator 18.0.0, SVG Export Plug-In . SVG Version: 6.00 Build 0)  -->
<!DOCTYPE svg PUBLIC "-//W3C//DTD SVG 1.1//EN" "http://www.w3.org/Graphics/SVG/1.1/DTD/svg11.dtd">
<svg version="1.1" id="Layer_1" xmlns="http://www.w3.org/2000/svg" xmlns:xlink="http://www.w3.org/1999/xlink" x="0px" y="0px"
	 viewBox="0 0 1453.8 850" enable-background="new 0 0 1453.8 850" xml:space="preserve">
<polygon fill="#231F20" points="67.1,161 67.1,475.2 466.3,475.2 466.3,568.4 717.5,568.4 717.5,442.8 698.3,442.8 698.3,423.5 
	1115.4,423.5 1115.4,125.4 589.8,125.4 589.8,161 "/>
<polyline fill="none" stroke="#424143" stroke-width="1.7818" stroke-miterlimit="10" points="466.3,724.6 466.3,586.3 720.1,586.3 
	720.1,599.1 "/>
<polyline fill="none" stroke="#424143" stroke-width="1.7818" stroke-miterlimit="10" points="720.1,621 720.1,761.6 466.3,761.6 
	466.3,744.7 "/>
<path fill="none" stroke="#424143" stroke-width="1.7818" stroke-miterlimit="10" d="M666.7,724.6L666.7,724.6
	c-16.9,0-30.6-13.7-30.6-30.6v0c0-16.9,13.7-30.6,30.6-30.6h0c16.9,0,30.6,13.7,30.6,30.6v0C697.3,710.9,683.6,724.6,666.7,724.6z"
	/>
<rect x="69.1" y="534.8" fill="#6BBE45" width="376.3" height="225.5"/>
<polygon fill="#EF444D" points="1421.5,403.2 1359.3,194.9 1153.5,194.9 1153.5,694.9 1322.6,694.9 1377.6,591.8 "/>
<rect x="96.1" y="248.6" fill="#71CCD3" width="243" height="143.7"/>
<rect x="698.8" y="7" fill="#EBE70F" width="377.4" height="96.2"/>
<rect x="698.3" y="125.4" fill="#B7DCAF" width="417.1" height="176.1"/>
<polygon fill="#EF444D" points="1435.8,327.4 1446.1,337.8 1446.1,352.4 1435.8,362.8 1421.1,362.8 1410.7,352.4 1410.7,337.8 
	1421.1,327.4 "/>
<polygon fill="#6BBE45" points="434.9,484.8 446.7,496.6 446.7,513.3 434.9,525 418.2,525 406.4,513.3 406.4,496.6 418.2,484.8 "/>
<rect x="924.8" y="536.4" fill="#C11F49" width="223.6" height="159.2"/>
<g>
	<g>
		<path fill="#010101" d="M1193.5,217.8l5.2,1.3l4.2,4.2l1.7,5.9l-1.5,5.6l-2.8,4.2l-2.7,1.3l7.6,17.2h-6.7l-6.9-15.9h-8.9v15.9h-6
			v-39.7H1193.5z M1182.6,235.7h10.6l2.8-1.4l1.3-2l0.8-2.9l-0.8-2.8l-2-2l-2.9-0.9h-9.9V235.7z"/>
		<path fill="#010101" d="M1218,223.8v9.7h13.4v6H1218v12.1h19.4v6h-25.5v-39.7h25.5v6H1218z"/>
		<path fill="#010101" d="M1244.5,217.8h14.9l6.4,2.5l3.9,3.9l2.5,4.9l1.2,4.9v7.4l-1.2,4.9l-2.5,4.9l-3.9,3.9l-6.4,2.5h-14.9V217.8
			z M1258.2,251.6l4.1-1.7l2.4-2.4l1.5-3.1l1.1-3.9v-5.5l-1-3.9l-1.6-3.2l-2.4-2.3l-4-1.7h-7.7v27.8H1258.2z"/>
		<path fill="#010101" d="M1173.6,284.6l-0.9-1.1l2.2-2.1l0.8,1l1.1,0.7l2.2,0.7h2.2l1.9-0.7l0.5-0.6l0.3-0.7v-1.4l-0.5-1.1
			l-1.1-0.6c-0.9-0.2-1.8-0.5-2.7-0.8s-1.8-0.5-2.8-0.8l-2.3-1.6l-1-1.5l-0.4-2.4l0.8-2.5l1.9-2l2.7-0.9h3l3.2,0.8l2.2,1.4l-1.6,2.6
			l-1.9-1.1l-2.3-0.6h-2.1l-1.4,0.5l-0.9,0.9l-0.3,1.1l0.2,1.1l0.2,0.4l1.3,0.9l5.7,1.6l2.3,1.6l0.9,2.2v2.8l-0.7,1.6l-1.4,1.6
			l-3.1,1.2h-3.3l-3.1-1L1173.6,284.6z"/>
		<path fill="#010101" d="M1197.3,286.5h-3.1v-17.1h-5.1v-3h13.4v3h-5.2V286.5z"/>
		<path fill="#010101" d="M1213.7,281.5h-7l-1.8,5h-3.3l7.3-20.1h2.3l7.3,20.1h-3.3L1213.7,281.5z M1207.7,278.4h4.9l-2.4-7
			L1207.7,278.4z"/>
		<path fill="#010101" d="M1232,270.6l-0.9-0.7l-1.9-0.7h-2l-1.8,0.8l-1.2,1.2l-0.8,1.6l-0.4,1.8v3.4l0.4,1.8l0.8,1.6l1.2,1.2
			l1.8,0.8h2.1l1.4-0.7l1.2-1l0.8-1.3l0.2-0.8V279h-4.7v-3h7.8v4.1l-0.3,1.7l-1.2,2.1l-2,1.8l-2.5,1.1h-3.3l-3-1.3l-2-2l-1.2-2.5
			l-0.5-2.4v-4.2l0.5-2.5l1.2-2.5l2-2l3-1.3h3.1l3,1.1l1.3,1l1.4,1.6l-2.3,2L1232,270.6z"/>
		<path fill="#010101" d="M1242.9,269.4v4.9h6.8v3.1h-6.8v6.1h9.8v3h-12.9v-20.1h12.9v3H1242.9z"/>
	</g>
</g>
<g>
	<path fill="#010101" d="M731.9,18.5h7.2L726.3,39v19.2h-6V39l-12.8-20.6h7.2l8.7,14.5L731.9,18.5z"/>
	<path fill="#010101" d="M750.1,24.4v9.7h13.4v6h-13.4v12.1h19.4v6H744V18.5h25.5v6H750.1z"/>
	<path fill="#010101" d="M782.2,52.2h17.4v6h-23.4V18.5h6V52.2z"/>
	<path fill="#010101" d="M811.3,52.2h17.4v6h-23.4V18.5h6V52.2z"/>
	<path fill="#010101" d="M844.6,58.6l-6-2.6l-3.8-3.9l-2.5-5l-1.1-4.7v-8.2l1.1-4.9l2.4-4.9l4-3.9l5.8-2.6h6.3l5.9,2.6l4,3.9
		l2.3,4.9l1.1,4.9v8.2l-1.1,4.7l-2.4,5L857,56l-6,2.6H844.6z M845.9,52.6h3.9l3.6-1.7l2.3-2.3l1.7-3.2l0.8-3.6v-6.8l-0.8-3.6
		l-1.6-3.1l-2.5-2.5l-3.6-1.6h-4l-3.5,1.6l-2.5,2.5l-1.6,3.1l-0.8,3.7v6.8l0.7,3.4l1.7,3.4l2.3,2.4L845.9,52.6z"/>
	<path fill="#010101" d="M901,46.3l7-27.9h6.3l-10.2,39.7h-5.5l-7.9-25.7l-7.9,25.7h-5.5l-10.2-39.7h6.3l7,27.9l8.1-26.3h4.5
		L901,46.3z"/>
	<path fill="#010101" d="M709.6,85.2l-0.9-1.1l2.2-2.1l0.8,1l1.1,0.7l2.2,0.6h2.2l1.9-0.7l0.5-0.6l0.3-0.7v-1.4l-0.5-1.1l-1.1-0.6
		c-0.9-0.2-1.8-0.5-2.7-0.8c-0.9-0.3-1.8-0.5-2.8-0.8l-2.3-1.6l-1-1.5l-0.4-2.4l0.8-2.5l1.9-2l2.7-0.9h3l3.2,0.8l2.2,1.4l-1.6,2.6
		l-1.9-1.1l-2.3-0.6h-2.1l-1.4,0.5l-0.9,0.9l-0.3,1.1l0.2,1.1l0.2,0.4l1.3,0.9l5.7,1.6l2.3,1.6l0.9,2.2V83l-0.7,1.6l-1.4,1.6
		l-3.1,1.2h-3.3l-3.1-1L709.6,85.2z"/>
	<path fill="#010101" d="M733.2,87.1h-3.1V70.1H725v-3h13.4v3h-5.2V87.1z"/>
	<path fill="#010101" d="M749.6,82.1h-7l-1.8,5h-3.3l7.3-20.1h2.3l7.3,20.1h-3.3L749.6,82.1z M743.7,79.1h4.9l-2.4-7L743.7,79.1z"/>
	<path fill="#010101" d="M767.9,71.2l-0.9-0.7l-1.9-0.6h-2l-1.8,0.8l-1.2,1.2l-0.8,1.6l-0.4,1.8v3.4l0.4,1.8l0.8,1.6l1.2,1.2
		l1.8,0.8h2.1l1.4-0.6l1.2-1l0.8-1.3l0.2-0.8v-0.9H764v-3h7.8v4.1l-0.3,1.7l-1.2,2.1l-2,1.8l-2.5,1.1h-3.3l-3-1.3l-2-2l-1.2-2.5
		l-0.5-2.4V75l0.5-2.5l1.2-2.5l2-2l3-1.3h3.1l3,1.1l1.3,1l1.4,1.6l-2.3,2L767.9,71.2z"/>
	<path fill="#010101" d="M778.8,70.1V75h6.8V78h-6.8v6.1h9.8v3h-12.9V67h12.9v3H778.8z"/>
</g>
<g>
	<path fill="#595A5C" d="M577,837.4v3.5h4.8v2.2H577v6.6h-2.2v-14.6h8.9v2.2H577z"/>
	<path fill="#595A5C" d="M592,835.2l1.9,0.5l1.6,1.6l0.6,2.2l-0.6,2l-1,1.5l-1,0.5l2.8,6.3h-2.5l-2.5-5.8H588v5.8h-2.2v-14.6H592z
		 M588,841.8h3.9l1-0.5l0.5-0.7l0.3-1.1l-0.3-1l-0.7-0.7l-1.1-0.3H588V841.8z"/>
	<path fill="#595A5C" d="M605.8,846.2h-5.1l-1.3,3.6h-2.4l5.3-14.6h1.7l5.3,14.6h-2.4L605.8,846.2z M601.5,844h3.5l-1.8-5.1
		L601.5,844z"/>
	<path fill="#595A5C" d="M611.6,835.2h1.8l7.3,10.7v-10.7h2.2v14.6h-2.2l-7-10.2v10.2h-2.2V835.2z"/>
	<path fill="#595A5C" d="M638.3,849.8h-2.7l-4.6-6.9l-2.2,2.3v4.6h-2.2v-14.6h2.2v6.8l6.4-6.8h3.1l-5.7,6.1L638.3,849.8z"/>
	<path fill="#595A5C" d="M642.4,847.6h6.4v2.2h-8.6v-14.6h2.2V847.6z"/>
	<path fill="#595A5C" d="M653.1,849.8h-2.2v-14.6h2.2V849.8z"/>
	<path fill="#595A5C" d="M656.6,835.2h1.8l7.3,10.7v-10.7h2.2v14.6h-2.2l-7-10.2v10.2h-2.2V835.2z"/>
	<path fill="#595A5C" d="M677.5,848.4l-0.6-0.8l1.6-1.5l0.6,0.7l0.8,0.5l1.6,0.5h1.6l1.4-0.5l0.4-0.5l0.2-0.5v-1l-0.4-0.8l-0.8-0.4
		c-0.7-0.2-1.3-0.4-2-0.6c-0.7-0.2-1.3-0.4-2-0.6l-1.6-1.1l-0.7-1.1l-0.3-1.8l0.6-1.8l1.4-1.4l1.9-0.6h2.2l2.3,0.6l1.6,1l-1.2,1.9
		l-1.4-0.8l-1.7-0.4h-1.5l-1,0.3l-0.7,0.7l-0.2,0.8l0.2,0.8l0.2,0.3l0.9,0.7l4.1,1.1l1.7,1.1l0.7,1.6v2l-0.5,1.1l-1,1.2l-2.3,0.8
		H681l-2.3-0.7L677.5,848.4z"/>
	<path fill="#595A5C" d="M694.6,849.8h-2.2v-12.4h-3.7v-2.2h9.7v2.2h-3.8V849.8z"/>
	<path fill="#595A5C" d="M706.9,835.2l1.9,0.5l1.6,1.6l0.6,2.2l-0.6,2l-1,1.5l-1,0.5l2.8,6.3h-2.5l-2.5-5.8h-3.3v5.8h-2.2v-14.6
		H706.9z M702.9,841.8h3.9l1-0.5l0.5-0.7l0.3-1.1l-0.3-1l-0.7-0.7l-1.1-0.3h-3.6V841.8z"/>
	<path fill="#595A5C" d="M715.9,837.4v3.5h4.9v2.2h-4.9v4.4h7.1v2.2h-9.4v-14.6h9.4v2.2H715.9z"/>
	<path fill="#595A5C" d="M727.8,837.4v3.5h4.9v2.2h-4.9v4.4h7.1v2.2h-9.4v-14.6h9.4v2.2H727.8z"/>
	<path fill="#595A5C" d="M742,849.8h-2.2v-12.4H736v-2.2h9.7v2.2H742V849.8z"/>
</g>
<g>
	<path fill="#595A5C" d="M505.7,529.8h-2.2v-12.4h-3.7v-2.2h9.7v2.2h-3.8V529.8z"/>
	<path fill="#595A5C" d="M519.7,521v-5.7h2.2v14.6h-2.2v-6.6h-5.8v6.6h-2.2v-14.6h2.2v5.7H519.7z"/>
	<path fill="#595A5C" d="M527.8,517.4v3.5h4.9v2.2h-4.9v4.4h7.1v2.2h-9.4v-14.6h9.4v2.2H527.8z"/>
	<path fill="#595A5C" d="M545.6,527.6h6.4v2.2h-8.6v-14.6h2.2V527.6z"/>
	<path fill="#595A5C" d="M557.8,530l-2.2-1l-1.4-1.4l-0.9-1.8L553,524v-3l0.4-1.8l0.9-1.8l1.5-1.4l2.1-0.9h2.3l2.2,0.9l1.5,1.4
		l0.9,1.8l0.4,1.8v3l-0.4,1.7l-0.9,1.8l-1.4,1.4l-2.2,1H557.8z M558.3,527.7h1.4l1.3-0.6l0.9-0.9l0.6-1.2l0.3-1.3v-2.5l-0.3-1.3
		l-0.6-1.1l-0.9-0.9l-1.3-0.6h-1.5l-1.3,0.6l-0.9,0.9l-0.6,1.1l-0.3,1.4v2.5l0.3,1.2l0.6,1.2l0.9,0.9L558.3,527.7z"/>
	<path fill="#595A5C" d="M568.1,515.2h6.1l2,0.5l1.4,1.6l0.5,2l-0.4,1.6l-0.7,1l-0.4,0.2l0.4,0.2l0.9,1.2l0.5,2l-0.5,2l-1.1,1.4
		l-1.7,0.8h-6.9V515.2z M570.3,517.4v3.5h4.2l0.9-0.6l0.2-0.2l0.2-0.9l-0.2-0.9l-0.6-0.7l-0.9-0.3H570.3z M575.2,527.2l0.5-0.6
		l0.3-1.1l-0.3-1.2l-0.4-0.7l-0.9-0.6h-4.1v4.4h4.1L575.2,527.2z"/>
	<path fill="#595A5C" d="M581.2,515.2h6.1l2,0.5l1.4,1.6l0.5,2l-0.4,1.6l-0.7,1l-0.4,0.2l0.4,0.2l0.9,1.2l0.5,2l-0.5,2l-1.1,1.4
		l-1.7,0.8h-6.9V515.2z M583.4,517.4v3.5h4.2l0.9-0.6l0.2-0.2l0.2-0.9l-0.2-0.9l-0.6-0.7l-0.9-0.3H583.4z M588.3,527.2l0.5-0.6
		l0.3-1.1l-0.3-1.2l-0.4-0.7l-0.9-0.6h-4.1v4.4h4.1L588.3,527.2z"/>
	<path fill="#595A5C" d="M601,515.2h2.6l-4.7,7.5v7h-2.2v-7l-4.7-7.5h2.6l3.2,5.3L601,515.2z"/>
</g>
<g>
	<path fill="#595A5C" d="M483.1,724.6h-2.2v-12.4h-3.7V710h9.7v2.2h-3.8V724.6z"/>
	<path fill="#595A5C" d="M497.1,715.7V710h2.2v14.6h-2.2V718h-5.8v6.6h-2.2V710h2.2v5.7H497.1z"/>
	<path fill="#595A5C" d="M505.3,712.2v3.5h4.9v2.2h-4.9v4.4h7.1v2.2H503V710h9.4v2.2H505.3z"/>
	<path fill="#595A5C" d="M482.8,748.7l-2.2-1l-1.4-1.4l-0.9-1.8l-0.4-1.7v-3l0.4-1.8l0.9-1.8l1.5-1.4l2.2-0.9h2.3l2.2,0.9l0.9,0.7
		l1,1.1l-1.6,1.5l-0.9-1l-0.6-0.4l-1.4-0.6h-1.5l-1.3,0.6l-0.9,0.9l-0.6,1.1l-0.3,1.3v2.5l0.3,1.3l0.6,1.2l0.9,0.9l1.3,0.6h1.5
		l1.4-0.6l0.5-0.4l0.8-1l1.6,1.5l-1,1.1l-0.9,0.7l-2.2,0.9H482.8z"/>
	<path fill="#595A5C" d="M495.5,748.7l-2.2-1l-1.4-1.4l-0.9-1.8l-0.4-1.7v-3l0.4-1.8l0.9-1.8l1.5-1.4l2.1-0.9h2.3l2.2,0.9l1.5,1.4
		l0.9,1.8l0.4,1.8v3l-0.4,1.7l-0.9,1.8l-1.4,1.4l-2.2,1H495.5z M496,746.5h1.4l1.3-0.6l0.9-0.9l0.6-1.2l0.3-1.3V740l-0.3-1.3
		l-0.6-1.1l-0.9-0.9l-1.3-0.6h-1.5l-1.3,0.6l-0.9,0.9l-0.6,1.1l-0.3,1.4v2.5l0.3,1.2l0.6,1.2l0.9,0.9L496,746.5z"/>
	<path fill="#595A5C" d="M510.2,748.7l-2.7-1l-1.5-1.9l-0.5-1.5V734h2.2v10.1l0.2,0.8l0.8,1.1l1.6,0.6h1.2l1.6-0.6l0.9-1.1l0.2-0.8
		V734h2.2v10.3l-0.5,1.5l-1.5,1.9l-2.6,1H510.2z"/>
	<path fill="#595A5C" d="M526.5,734l1.9,0.5l1.6,1.6l0.6,2.2l-0.6,2l-1,1.5l-1,0.5l2.8,6.3h-2.5l-2.5-5.8h-3.3v5.8h-2.2V734H526.5z
		 M522.5,740.6h3.9l1-0.5l0.5-0.7l0.3-1.1l-0.3-1l-0.7-0.7l-1.1-0.3h-3.6V740.6z"/>
	<path fill="#595A5C" d="M537.1,748.6h-2.2v-12.4h-3.7V734h9.7v2.2h-3.8V748.6z"/>
	<path fill="#595A5C" d="M550.3,734h2.6l-4.7,7.5v7H546v-7l-4.7-7.5h2.6l3.2,5.3L550.3,734z"/>
	<path fill="#595A5C" d="M560.2,744.9h-5.1l-1.3,3.6h-2.4l5.3-14.6h1.7l5.3,14.6h-2.4L560.2,744.9z M555.9,742.7h3.5l-1.8-5.1
		L555.9,742.7z"/>
	<path fill="#595A5C" d="M572.1,734l1.9,0.5l1.6,1.6l0.6,2.2l-0.6,2l-1,1.5l-1,0.5l2.8,6.3H574l-2.5-5.8h-3.3v5.8H566V734H572.1z
		 M568.2,740.6h3.9l1-0.5l0.5-0.7l0.3-1.1l-0.3-1l-0.7-0.7l-1.1-0.3h-3.6V740.6z"/>
	<path fill="#595A5C" d="M578.9,734h5.5l2.4,0.9l1.4,1.4l0.9,1.8l0.4,1.8v2.7l-0.4,1.8l-0.9,1.8l-1.4,1.4l-2.4,0.9h-5.5V734z
		 M584,746.4l1.5-0.6l0.9-0.9l0.6-1.1l0.4-1.4v-2l-0.4-1.4l-0.6-1.2l-0.9-0.9l-1.5-0.6h-2.8v10.2H584z"/>
</g>
<g>
	<g>
		<path fill="#595A5C" d="M811.7,683.4l-0.7-0.5l-1.4-0.5h-1.5l-1.3,0.6l-0.9,0.9l-0.6,1.1l-0.3,1.3v2.5l0.3,1.3l0.6,1.2l0.9,0.9
			l1.3,0.6h1.5l1-0.5l0.8-0.7l0.6-0.9l0.1-0.6v-0.7h-3.4v-2.2h5.6v3l-0.2,1.2l-0.9,1.5l-1.5,1.3l-1.8,0.8h-2.4l-2.2-1l-1.4-1.4
			l-0.9-1.8l-0.4-1.7v-3l0.4-1.8l0.9-1.8l1.5-1.4l2.2-0.9h2.3l2.2,0.8l1,0.7l1,1.2l-1.7,1.4L811.7,683.4z"/>
		<path fill="#595A5C" d="M823.9,691.3h-5.1l-1.3,3.6h-2.4l5.3-14.6h1.7l5.3,14.6h-2.4L823.9,691.3z M819.5,689.1h3.5l-1.8-5.1
			L819.5,689.1z"/>
		<path fill="#595A5C" d="M832.8,694.9h-2.2v-12.4h-3.7v-2.2h9.7v2.2h-3.8V694.9z"/>
		<path fill="#595A5C" d="M841.1,682.6v3.5h4.9v2.2h-4.9v4.4h7.1v2.2h-9.4v-14.6h9.4v2.2H841.1z"/>
		<path fill="#595A5C" d="M850.5,693.6l-0.6-0.8l1.6-1.5l0.6,0.7l0.8,0.5l1.6,0.5h1.6l1.4-0.5l0.4-0.5l0.2-0.5v-1l-0.4-0.8l-0.8-0.4
			c-0.7-0.2-1.3-0.4-2-0.6c-0.7-0.2-1.3-0.4-2-0.6l-1.6-1.1l-0.7-1.1l-0.3-1.8l0.6-1.8l1.4-1.4l1.9-0.6h2.2l2.3,0.6l1.6,1l-1.2,1.9
			l-1.4-0.8l-1.7-0.4h-1.5l-1,0.3l-0.7,0.7l-0.2,0.8l0.2,0.8l0.2,0.3l0.9,0.7l4.1,1.1l1.7,1.1l0.7,1.6v2l-0.5,1.1l-1,1.2l-2.3,0.8
			H854l-2.3-0.7L850.5,693.6z"/>
	</g>
</g>
<polygon fill="none" stroke="#424143" stroke-width="1.7818" stroke-miterlimit="10" points="0.9,0.9 0.9,776.9 746.2,776.9 
	746.2,653.1 920.8,653.1 920.8,761.6 1301.7,761.6 1390.2,600 1452.9,345.3 1366.6,33.9 1271.1,0.9 "/>
<polyline fill="none" stroke="#939598" stroke-width="2.6727" stroke-miterlimit="10" points="717.5,539.6 717.5,442.8 698.3,442.8 
	698.3,423.5 1115.4,423.5 1115.4,125.4 589.8,125.4 "/>
<polyline fill="none" stroke="#939598" stroke-width="2.6727" stroke-miterlimit="10" points="697.3,568.4 717.5,568.4 717.5,559.7 
	"/>
<line fill="none" stroke="#939598" stroke-width="2.6727" stroke-miterlimit="10" x1="496.1" y1="568.4" x2="674.6" y2="568.4"/>
<polyline fill="none" stroke="#939598" stroke-width="2.6727" stroke-miterlimit="10" points="169.9,475.2 466.3,475.2 466.3,568.4 
	"/>
<polyline fill="none" stroke="#939598" stroke-width="2.6727" stroke-miterlimit="10" points="589.8,161 67.1,161 67.1,475.2 
	140,475.2 "/>
<g>
	<path fill="#FFFFFF" d="M1005.9,625.5v0.7h-2v1.2h2v0.7h-2v2.1h-0.9v-4.8H1005.9z"/>
	<path fill="#FFFFFF" d="M1011.4,625.4c0.5,0,0.9,0.1,1.3,0.3c0.4,0.2,0.7,0.5,0.9,0.9c0.2,0.4,0.4,0.8,0.4,1.3
		c0,0.4-0.1,0.9-0.3,1.2c-0.2,0.4-0.5,0.7-0.9,0.9s-0.8,0.3-1.3,0.3c-0.5,0-0.9-0.1-1.3-0.3c-0.4-0.2-0.7-0.5-0.9-0.9
		c-0.2-0.4-0.3-0.8-0.3-1.2c0-0.4,0.1-0.8,0.3-1.2s0.5-0.7,0.9-0.9C1010.4,625.5,1010.9,625.4,1011.4,625.4z M1009.7,627.9
		c0,0.3,0.1,0.6,0.2,0.9c0.1,0.3,0.3,0.4,0.6,0.6c0.3,0.1,0.5,0.2,0.9,0.2c0.5,0,0.9-0.2,1.2-0.5s0.5-0.7,0.5-1.2
		c0-0.3-0.1-0.6-0.2-0.9c-0.1-0.3-0.3-0.4-0.6-0.6c-0.3-0.1-0.5-0.2-0.9-0.2c-0.3,0-0.6,0.1-0.9,0.2s-0.5,0.3-0.6,0.6
		C1009.8,627.3,1009.7,627.5,1009.7,627.9z"/>
	<path fill="#FFFFFF" d="M1019.6,625.4c0.5,0,0.9,0.1,1.3,0.3c0.4,0.2,0.7,0.5,0.9,0.9c0.2,0.4,0.4,0.8,0.4,1.3
		c0,0.4-0.1,0.9-0.3,1.2c-0.2,0.4-0.5,0.7-0.9,0.9s-0.8,0.3-1.3,0.3c-0.5,0-0.9-0.1-1.3-0.3s-0.7-0.5-0.9-0.9
		c-0.2-0.4-0.3-0.8-0.3-1.2c0-0.4,0.1-0.8,0.3-1.2c0.2-0.4,0.5-0.7,0.9-0.9C1018.6,625.5,1019.1,625.4,1019.6,625.4z M1017.9,627.9
		c0,0.3,0.1,0.6,0.2,0.9c0.1,0.3,0.3,0.4,0.6,0.6c0.3,0.1,0.5,0.2,0.9,0.2c0.5,0,0.9-0.2,1.2-0.5s0.5-0.7,0.5-1.2
		c0-0.3-0.1-0.6-0.2-0.9c-0.1-0.3-0.3-0.4-0.6-0.6s-0.5-0.2-0.9-0.2s-0.6,0.1-0.9,0.2s-0.5,0.3-0.6,0.6S1017.9,627.5,1017.9,627.9z"
		/>
	<path fill="#FFFFFF" d="M1027.4,625.5c0.5,0,0.9,0.1,1.3,0.3c0.4,0.2,0.7,0.5,0.9,0.9c0.2,0.4,0.3,0.8,0.3,1.2
		c0,0.5-0.1,0.9-0.3,1.2c-0.2,0.4-0.5,0.6-0.9,0.8c-0.4,0.2-0.8,0.3-1.4,0.3h-1.9v-4.8H1027.4z M1027.3,629.5c0.5,0,0.9-0.2,1.2-0.5
		s0.5-0.7,0.5-1.2c0-0.5-0.2-0.9-0.5-1.2c-0.3-0.3-0.7-0.4-1.3-0.4h-0.9v3.3H1027.3z"/>
	<path fill="#FFFFFF" d="M1039.4,625.4c0.3,0,0.5,0,0.8,0.1c0.3,0.1,0.5,0.2,0.8,0.3v0.9c-0.3-0.2-0.6-0.3-0.8-0.4
		c-0.2-0.1-0.5-0.1-0.8-0.1c-0.3,0-0.6,0.1-0.9,0.2s-0.5,0.3-0.6,0.6c-0.2,0.3-0.2,0.5-0.2,0.8c0,0.3,0.1,0.6,0.2,0.9
		c0.1,0.3,0.4,0.4,0.6,0.6s0.6,0.2,0.9,0.2c0.3,0,0.5,0,0.7-0.1s0.5-0.2,0.9-0.4v0.9c-0.3,0.2-0.6,0.3-0.9,0.3s-0.6,0.1-0.9,0.1
		c-0.5,0-1-0.1-1.3-0.3c-0.4-0.2-0.7-0.5-0.9-0.9c-0.2-0.4-0.3-0.8-0.3-1.2c0-0.5,0.1-0.9,0.3-1.3c0.2-0.4,0.6-0.7,1-0.9
		C1038.4,625.5,1038.9,625.4,1039.4,625.4z"/>
	<path fill="#FFFFFF" d="M1046.6,625.4c0.5,0,0.9,0.1,1.3,0.3c0.4,0.2,0.7,0.5,0.9,0.9c0.2,0.4,0.4,0.8,0.4,1.3
		c0,0.4-0.1,0.9-0.3,1.2c-0.2,0.4-0.5,0.7-0.9,0.9s-0.8,0.3-1.3,0.3c-0.5,0-0.9-0.1-1.3-0.3c-0.4-0.2-0.7-0.5-0.9-0.9
		c-0.2-0.4-0.3-0.8-0.3-1.2c0-0.4,0.1-0.8,0.3-1.2s0.5-0.7,0.9-0.9C1045.6,625.5,1046.1,625.4,1046.6,625.4z M1044.9,627.9
		c0,0.3,0.1,0.6,0.2,0.9c0.1,0.3,0.3,0.4,0.6,0.6c0.3,0.1,0.5,0.2,0.9,0.2c0.5,0,0.9-0.2,1.2-0.5s0.5-0.7,0.5-1.2
		c0-0.3-0.1-0.6-0.2-0.9c-0.1-0.3-0.3-0.4-0.6-0.6c-0.3-0.1-0.5-0.2-0.9-0.2c-0.3,0-0.6,0.1-0.9,0.2s-0.5,0.3-0.6,0.6
		C1045,627.3,1044.9,627.5,1044.9,627.9z"/>
	<path fill="#FFFFFF" d="M1053.2,625.5v2.8c0,0.3,0,0.5,0.1,0.7s0.2,0.3,0.4,0.4c0.2,0.1,0.4,0.2,0.7,0.2c0.3,0,0.5-0.1,0.7-0.2
		c0.2-0.1,0.3-0.2,0.4-0.4c0.1-0.2,0.1-0.4,0.1-0.7v-2.7h0.9v2.8c0,0.6-0.2,1.1-0.6,1.5c-0.4,0.3-0.9,0.5-1.6,0.5
		c-0.4,0-0.8-0.1-1.1-0.2c-0.3-0.2-0.6-0.4-0.7-0.7c-0.2-0.3-0.3-0.6-0.3-1v-2.9H1053.2z"/>
	<path fill="#FFFFFF" d="M1061.7,625.5c0.4,0,0.8,0.1,1.1,0.4c0.3,0.2,0.4,0.6,0.4,1c0,0.3-0.1,0.5-0.2,0.7s-0.3,0.4-0.6,0.5
		c0.2,0.1,0.3,0.2,0.4,0.3c0.1,0.1,0.3,0.4,0.4,0.7c0.3,0.6,0.5,1,0.6,1.2h-1c-0.1-0.1-0.2-0.3-0.3-0.5c-0.3-0.5-0.5-0.8-0.6-1
		c-0.1-0.2-0.2-0.3-0.4-0.4c-0.1-0.1-0.2-0.1-0.4-0.1h-0.3v2h-0.9v-4.8H1061.7z M1061.5,627.5c0.2,0,0.4-0.1,0.6-0.2
		c0.1-0.1,0.2-0.3,0.2-0.5c0-0.2-0.1-0.4-0.2-0.5c-0.1-0.1-0.3-0.2-0.6-0.2h-0.6v1.3H1061.5z"/>
	<path fill="#FFFFFF" d="M1070.6,625.5v0.7h-1.7v4h-0.9v-4h-1.7v-0.7H1070.6z"/>
</g>
<g>
	<g>
		<path fill="#EBE70F" d="M681.3,568.5l3.9-4h1l3.8,4l-1.2,1.2l-2.2-2.2v11.6h-1.8v-11.6l-2.2,2.2L681.3,568.5z"/>
	</g>
</g>
<g>
	<g>
		<path fill="#595A5C" d="M804.1,714l3.9-4h1l3.8,4l-1.2,1.2l-2.2-2.2v11.6h-1.8V713l-2.2,2.2L804.1,714z"/>
	</g>
</g>
<g>
	<g>
		<path fill="#595A5C" d="M827.5,714l3.9-4h1l3.8,4l-1.2,1.2l-2.2-2.2v11.6h-1.8V713l-2.2,2.2L827.5,714z"/>
	</g>
</g>
<g>
	<g>
		<path fill="#595A5C" d="M850.8,714l3.9-4h1l3.8,4l-1.2,1.2l-2.2-2.2v11.6h-1.8V713l-2.2,2.2L850.8,714z"/>
	</g>
</g>
<g>
	<g>
		<path fill="#EBE70F" d="M476.3,568.5l3.9-4h1l3.8,4l-1.2,1.2l-2.2-2.2v11.6h-1.8v-11.6l-2.2,2.2L476.3,568.5z"/>
	</g>
</g>
<g>
	<g>
		<path fill="#EBE70F" d="M716.1,553.6l-4-3.9v-1l4-3.8l1.2,1.2l-2.2,2.2h11.6v1.8H715l2.2,2.2L716.1,553.6z"/>
	</g>
</g>
<g>
	<g>
		<path fill="#EBE70F" d="M362.1,395l-4-3.9v-1l4-3.8l1.2,1.2l-2.2,2.2h11.6v1.8h-11.6l2.2,2.2L362.1,395z"/>
	</g>
</g>
<g>
	<g>
		<path fill="#EBE70F" d="M370.4,401l4,3.9v1l-4,3.8l-1.2-1.2l2.2-2.2h-11.6v-1.8h11.6l-2.2-2.2L370.4,401z"/>
	</g>
</g>
<g>
	<g>
		<path fill="#EBE70F" d="M362.1,193.1l-4-3.9v-1l4-3.8l1.2,1.2l-2.2,2.2h11.6v1.8h-11.6l2.2,2.2L362.1,193.1z"/>
	</g>
</g>
<g>
	<g>
		<path fill="#EBE70F" d="M370.4,199l4,3.9v1l-4,3.8l-1.2-1.2l2.2-2.2h-11.6v-1.8h11.6l-2.2-2.2L370.4,199z"/>
	</g>
</g>
<g>
	<g>
		<path fill="#EBE70F" d="M154.9,485l3.9-4h1l3.8,4l-1.2,1.2l-2.2-2.2v11.6h-1.8v-11.6l-2.2,2.2L154.9,485z"/>
	</g>
</g>
<g>
	<g>
		<path fill="#EBE70F" d="M151.9,493.2l-3.9,4h-1l-3.8-4l1.2-1.2l2.2,2.2v-11.6h1.8v11.6l2.2-2.2L151.9,493.2z"/>
	</g>
</g>
<g>
	<g>
		<path fill="#EBE70F" d="M600.6,141.6l-4-3.9v-1l4-3.8l1.2,1.2l-2.2,2.2h11.6v1.8h-11.6l2.2,2.2L600.6,141.6z"/>
	</g>
</g>
<g>
	<g>
		<path fill="#EBE70F" d="M608.9,147.5l4,3.9v1l-4,3.8l-1.2-1.2l2.2-2.2h-11.6v-1.8h11.6l-2.2-2.2L608.9,147.5z"/>
	</g>
</g>
<g>
	<g>
		<path fill="#EBE70F" d="M680.3,311.8l3.9-4h1l3.8,4l-1.2,1.2l-2.2-2.2v11.6h-1.8v-11.6l-2.2,2.2L680.3,311.8z"/>
	</g>
</g>
<g>
	<g>
		<path fill="#EBE70F" d="M677.3,320.1l-3.9,4h-1l-3.8-4l1.2-1.2l2.2,2.2v-11.6h1.8v11.6l2.2-2.2L677.3,320.1z"/>
	</g>
</g>
<g>
	<g>
		<path fill="#EBE70F" d="M685.2,231.4l4,3.9v1l-4,3.8l-1.2-1.2l2.2-2.2h-11.6v-1.8h11.6l-2.2-2.2L685.2,231.4z"/>
	</g>
</g>
<line fill="none" stroke="#B7DCAF" stroke-width="6" stroke-miterlimit="10" x1="1124.6" y1="422.2" x2="1124.6" y2="123.8"/>
<line fill="none" stroke="#B7DCAF" stroke-width="6" stroke-miterlimit="10" x1="1115.4" y1="116.4" x2="930.1" y2="116.4"/>
<polyline fill="none" stroke="#EBE70F" stroke-width="1.5145" stroke-miterlimit="10" points="691.5,422.7 685.3,422.7 685.3,428.9 
	679.1,428.9 679.1,435.1 672.9,435.1 "/>
<polyline fill="none" stroke="#EBE70F" stroke-width="1.5145" stroke-miterlimit="10" points="458.2,456 452.1,456 452.1,462.2 
	445.9,462.2 445.9,468.4 439.7,468.4 "/>
<polyline fill="none" stroke="#EBE70F" stroke-width="1.5145" stroke-miterlimit="10" points="185.7,456 179.5,456 179.5,462.2 
	173.3,462.2 173.3,468.4 167.1,468.4 "/>
<polyline fill="none" stroke="#EBE70F" stroke-width="1.5145" stroke-miterlimit="10" points="406.3,168.3 400.1,168.3 400.1,174.6 
	393.9,174.6 393.9,180.7 387.7,180.7 "/>
<polyline fill="none" stroke="#EBE70F" stroke-width="1.5145" stroke-miterlimit="10" points="560.5,168.3 554.3,168.3 554.3,174.6 
	548.1,174.6 548.1,180.7 541.9,180.7 "/>
<polyline fill="none" stroke="#EBE70F" stroke-width="1.5145" stroke-miterlimit="10" points="161.6,168.3 155.4,168.3 155.4,174.6 
	149.2,174.6 149.2,180.7 143,180.7 "/>
<line fill="none" stroke="#939598" stroke-width="2.6727" stroke-miterlimit="10" x1="349" y1="213.4" x2="349" y2="376"/>
<line fill="none" stroke="#939598" stroke-width="2.6727" stroke-miterlimit="10" x1="349" y1="422" x2="349" y2="475.5"/>
<line fill="none" stroke="#939598" stroke-width="2.6727" stroke-miterlimit="10" x1="349" y1="180.2" x2="349" y2="161"/>
<line fill="none" stroke="#939598" stroke-width="2.6727" stroke-miterlimit="10" x1="698.3" y1="423.5" x2="698.3" y2="248.6"/>
<line fill="none" stroke="#939598" stroke-width="2.6727" stroke-miterlimit="10" x1="698.3" y1="223.7" x2="698.3" y2="125.4"/>
<line fill="none" stroke="#B7DCAF" stroke-width="6" stroke-miterlimit="10" x1="1115.9" y1="432.8" x2="849" y2="432.8"/>
<polyline fill="none" stroke="#424143" stroke-width="1.7818" stroke-miterlimit="10" points="746.2,776.9 746.2,809 4.1,809 "/>
<polyline fill="none" stroke="#595A5C" stroke-width="1.7818" stroke-miterlimit="10" points="920.8,761.6 920.8,809 1446.3,809 "/>
<polyline fill="none" stroke="#939598" stroke-width="2.6727" stroke-miterlimit="10" points="1115.4,301.5 698.3,301.5 
	691.5,301.5 "/>
<rect x="795.6" y="637.5" fill="#424143" width="75.7" height="25.8"/>
<g>
	<path fill="#EBE70F" d="M1286.4,30.3l-0.7-0.2l-0.4-0.3l-0.3-0.4l-0.1-0.4v-0.7l0.1-0.4l0.3-0.4l0.4-0.3l0.7-0.2h0.7l0.7,0.2
		l0.4,0.3l0.3,0.4l0.1,0.4v0.7l-0.1,0.4l-0.3,0.4l-0.4,0.3l-0.7,0.2H1286.4z"/>
	<path fill="#EBE70F" d="M1301,30.3l-0.7-0.2l-0.4-0.3l-0.3-0.4l-0.1-0.4v-0.7l0.1-0.4l0.3-0.4l0.4-0.3l0.7-0.2h0.7l0.7,0.2l0.4,0.3
		l0.3,0.4l0.1,0.4v0.7l-0.1,0.4l-0.3,0.4l-0.4,0.3l-0.7,0.2H1301z"/>
	<path fill="#EBE70F" d="M1284.7,33.3l-1.5,5l-0.2,0.3l-0.2,0.2l-0.3,0.1l-0.3,0l-0.3-0.1l-0.2-0.2l-0.1-0.3l0-0.3l0-0.3l1.5-5
		l1.2-1.3l1.6-0.7h1.6l1.6,0.7l1.3,1.3l1.5,5l0,0.3l0,0.3l-0.1,0.3l-0.2,0.2l-0.3,0.1l-0.3,0l-0.3-0.2l-0.2-0.2l-0.2-0.3l-1.5-5
		h-0.3l2.4,8.3h-2.2l0,6.1l-0.1,0.3l-0.1,0.3l-0.2,0.2l-0.3,0.1h-0.3l-0.3-0.1l-0.2-0.2L1287,48l-0.1-0.3v-6.1h-0.5l0,6.1l-0.1,0.3
		l-0.1,0.3l-0.2,0.2l-0.3,0.1h-0.3l-0.3-0.1l-0.2-0.2l-0.1-0.3l-0.1-0.3v-6.1h-2.2l2.4-8.3H1284.7z"/>
	<path fill="#EBE70F" d="M1302.4,30.7l2,0.7l0.9,1l0.4,1v5.2l-0.1,0.3l-0.1,0.3l-0.2,0.2l-0.3,0.1h-0.3l-0.3-0.1l-0.2-0.2l-0.1-0.3
		l-0.1-0.3v-5h-0.4v14.1l-0.1,0.3l-0.1,0.3l-0.2,0.2l-0.3,0.1h-0.5l-0.3-0.1l-0.2-0.2l-0.1-0.3l-0.1-0.3v-8.3h-0.4v8.3l-0.1,0.3
		l-0.1,0.3l-0.2,0.2l-0.3,0.1h-0.5l-0.3-0.1l-0.2-0.2l-0.1-0.3l-0.1-0.3V33.6h-0.5v5l-0.1,0.3l-0.1,0.3l-0.2,0.2l-0.3,0.1h-0.3
		l-0.3-0.1l-0.2-0.2l-0.1-0.3l-0.1-0.3v-5.2l0.4-1l0.9-1l2-0.7H1302.4z"/>
	<rect x="1293.2" y="26.9" fill="#EBE70F" width="2" height="21.7"/>
</g>
<polyline fill="none" stroke="#939598" stroke-width="2.6727" stroke-miterlimit="10" points="670.9,463.5 670.9,473.1 659.3,473.1 
	659.3,539.6 684.4,539.6 "/>
<line fill="none" stroke="#939598" stroke-width="2.6727" stroke-miterlimit="10" x1="698.3" y1="442.8" x2="670.9" y2="442.8"/>
<rect x="601.6" y="201.9" fill="#B7DCAF" width="35" height="33.9"/>
<rect x="453.5" y="231.9" fill="#B7DCAF" width="35" height="33.9"/>
<rect x="488.5" y="265.5" fill="#B7DCAF" width="170.8" height="35.9"/>
<rect x="521.2" y="310.4" fill="#B7DCAF" width="71" height="50.5"/>
<rect x="514.9" y="404.1" fill="#B7DCAF" width="140.8" height="36.8"/>
<g>
	<path fill="#010101" d="M1006.5,601.9h-4v8.3c0,0.7-0.1,1.3-0.3,1.6c-0.2,0.3-0.4,0.6-0.8,0.8c-0.4,0.2-0.9,0.3-1.5,0.3
		c-0.5,0-0.9-0.1-1.3-0.3c-0.1-0.3-0.1-0.6-0.1-0.9v-8.1l-1.4-1.7h-4v8.7c0,1.2,0.3,2.3,0.8,3.3c0.3,0.5,0.7,1,1.1,1.4
		c0.6,1,1.4,1.7,2.4,2.2c1,0.5,2.2,0.7,3.5,0.7c2.1,0,3.8-0.5,5-1.6c1.2-1.1,1.9-2.7,1.9-4.7v-8.2L1006.5,601.9z"/>
	<path fill="#FFFFFF" d="M1006.2,602.5v8.1c0,1.8-0.6,3.3-1.7,4.3c-1.1,1-2.7,1.5-4.7,1.5c-1.2,0-2.3-0.2-3.3-0.7
		c-0.4-0.2-0.8-0.4-1.1-0.7c-0.4-0.4-0.8-0.8-1.1-1.3c-0.5-0.9-0.7-1.9-0.7-3v-8.1h3.2v7.9c0,0.7,0.1,1.3,0.3,1.7
		c0.2,0.4,0.5,0.7,1,1c0,0,0,0,0,0c0.5,0.3,1,0.4,1.7,0.4c0.7,0,1.3-0.1,1.8-0.4c0.5-0.3,0.8-0.6,1-1c0.2-0.4,0.3-1.1,0.3-1.9v-7.7
		H1006.2z"/>
	<polygon fill="#010101" points="1061.5,603.6 1060.2,601.9 1056.2,601.9 1056.2,607.4 1052.3,607.4 1052.3,603.6 1050.9,601.9 
		1046.9,601.9 1046.9,616.3 1048.3,618 1052.3,618 1052.3,612.5 1056.2,612.5 1056.2,616.3 1057.6,618 1061.5,618 	"/>
	<polygon fill="#FFFFFF" points="1059.9,602.5 1059.9,616.1 1056.7,616.1 1056.7,610.6 1050.7,610.6 1050.7,616.1 1047.5,616.1 
		1047.5,602.5 1050.7,602.5 1050.7,607.9 1056.7,607.9 1056.7,602.5 	"/>
	<polygon fill="#010101" points="1070.1,618 1070.1,603.6 1068.7,601.9 1064.7,601.9 1064.7,616.3 1066.1,618 	"/>
	<rect x="1065.3" y="602.5" fill="#FFFFFF" width="3.2" height="13.7"/>
	<polygon fill="#010101" points="1073.3,601.9 1073.3,616.3 1074.7,618 1084.7,618 1084.7,614.6 1083.3,612.9 1078.7,612.9 
		1078.7,612 1084.3,612 1084.3,609.1 1082.9,607.4 1078.7,607.4 1078.7,606.5 1084.5,606.5 1084.5,603.6 1083.1,601.9 	"/>
	<polygon fill="#FFFFFF" points="1083,613.5 1083,616.1 1073.8,616.1 1073.8,602.5 1082.9,602.5 1082.9,605.1 1077,605.1 1077,608 
		1082.6,608 1082.6,610.6 1077,610.6 1077,613.5 	"/>
	<path fill="#010101" d="M979.5,618v-7.9l2.9,3.2c0,0,1.4-1.5,2.3-2.5v5.6l1.4,1.7h4v-14.4l-1.4-1.7h-3.2l-3.9,4.6l-3.9-4.6h-3.5
		v14.4l1.4,1.7H979.5z"/>
	<polygon fill="#FFFFFF" points="977.8,607.5 977.8,616.1 974.6,616.1 974.6,602.5 977.4,602.5 981.5,607.4 985.6,602.5 
		988.3,602.5 988.3,616.1 985.2,616.1 985.2,607.5 981.5,611.6 	"/>
	<path fill="#010101" d="M1042.3,603.1l-0.3-0.1c-0.9-0.4-1.7-0.7-2.5-0.9c-0.8-0.2-1.6-0.3-2.4-0.3c-1.5,0-2.9,0.3-4.2,0.9
		c-1.3,0.6-2.3,1.6-3,2.7c-0.7,1.2-1.1,2.5-1.1,4c0,1.4,0.4,2.7,1,3.8c0,0,1.3,2.6,4,4c1.2,0.6,2.6,0.9,4.1,0.9c1,0,1.9-0.1,2.7-0.3
		c0.8-0.2,1.6-0.5,2.5-1l0.2-0.1l0.3-0.2v-0.3V613l-1.5-1.8l-0.4,0.2l-0.5,0.3c-0.9,0.5-1.7,0.9-2.3,1c-0.6,0.2-1.2,0.3-1.8,0.3
		c-0.8,0-1.5-0.2-2.1-0.5c-0.2-0.1-0.3-0.2-0.4-0.3c-0.2-0.5-0.3-1-0.3-1.5c0-0.7,0.2-1.3,0.5-1.9c0.3-0.5,0.8-1,1.4-1.3
		c0.6-0.3,1.3-0.5,2.1-0.5c0.6,0,1.3,0.1,1.9,0.3c0.6,0.2,1.3,0.5,2,0.9l0.5,0.3l0.8,0.5v-4.3L1042.3,603.1z"/>
	<path fill="#FFFFFF" d="M1042.1,611.8v3.1l-0.2,0.1c-0.9,0.4-1.7,0.8-2.4,1c-0.7,0.2-1.6,0.3-2.6,0.3c-1.4,0-2.7-0.3-3.8-0.9
		c-0.6-0.3-1.1-0.6-1.5-1.1l0,0c-0.4-0.4-0.8-0.9-1.2-1.4c-0.6-1.1-1-2.3-1-3.5c0-1.4,0.3-2.6,1-3.7c0.7-1.1,1.6-1.9,2.8-2.5
		c1.2-0.6,2.5-0.9,3.9-0.9c0.8,0,1.5,0.1,2.2,0.3c0.7,0.2,1.5,0.5,2.4,0.9l0.2,0.1v3.2l-0.5-0.3c-0.8-0.4-1.5-0.8-2.1-1
		c-0.6-0.2-1.3-0.3-2-0.3c-0.9,0-1.7,0.2-2.3,0.5c-0.7,0.3-1.2,0.8-1.6,1.5c-0.4,0.6-0.6,1.4-0.6,2.1c0,0.8,0.2,1.5,0.6,2.2
		c0.2,0.4,0.6,0.8,1,1.1c0.2,0.1,0.4,0.3,0.6,0.4c0.7,0.3,1.5,0.5,2.4,0.5c0.7,0,1.3-0.1,1.9-0.3c0.6-0.2,1.4-0.6,2.4-1.1
		L1042.1,611.8z"/>
	<polygon fill="#010101" points="1012.5,618 1016.4,618 1016.4,610.3 1022.9,618 1026.3,618 1026.3,603.6 1024.9,601.9 1021,601.9 
		1021,609.5 1014.6,601.9 1011.1,601.9 1011.1,616.3 	"/>
	<polygon fill="#FFFFFF" points="1024.7,602.5 1024.7,616.1 1022,616.1 1014.7,607.5 1014.7,616.1 1011.6,616.1 1011.6,602.5 
		1014.3,602.5 1021.5,610.9 1021.5,602.5 	"/>
	<path fill="#010101" d="M1098.8,612.1c-0.3-0.9-0.8-1.6-1.4-2.3c-0.3-0.4-0.7-0.7-1-1c-0.9-0.8-2.1-1.3-3.2-1.8
		c0.1,0,0.2-0.1,0.3-0.1c0.7-0.1,1.4,0,2,0.2c0.6,0.2,1.2,0.5,1.7,0.8c0.4,0.3,0.9,0.5,1.3,0.8v-2.8v-1.3l-1.4-1.6
		c-0.5-0.3-1-0.5-1.5-0.7c-1.3-0.4-2.7-0.6-4-0.4c-1.2,0.2-2.4,0.7-3.2,1.7c-0.8,1-1.1,2.3-0.9,3.5c0.2,0.9,0.5,1.6,1.1,2.3
		c1.3,1.6,3.1,2.7,4.9,3.5c-0.5,0.4-1.3,0.3-1.8,0.2c-1.1-0.3-2-1-2.9-1.7c-0.4-0.3-0.8-0.6-1.1-0.9v4.7c0,0.1,0.2,0.2,0.2,0.3
		c0.4,0.4,0.7,0.9,1.1,1.3c0,0,0.1,0.1,0.1,0.1c0.1,0,0.2,0.1,0.2,0.1c0.3,0.2,0.6,0.3,0.9,0.5c0.6,0.3,1.3,0.5,1.9,0.7
		c1.3,0.2,2.7,0.2,4-0.3c1.1-0.4,2.1-1.3,2.6-2.4C1099.1,614.3,1099.2,613.1,1098.8,612.1"/>
	<path fill="#FFFFFF" d="M1097.4,612.2c0,1.2-0.4,2.2-1.3,3c-0.9,0.7-2,1.1-3.3,1.1c-0.9,0-1.6-0.1-2.2-0.3
		c-0.4-0.1-0.7-0.3-1.1-0.5c-0.3-0.1-0.6-0.3-0.9-0.5l-0.2-0.1v-3.4l0.6,0.5c1.3,1.1,2.6,1.7,3.7,1.7c0.5,0,1-0.1,1.3-0.3
		c0.3-0.2,0.4-0.4,0.4-0.8c0,0,0,0,0,0c0-0.5-0.3-0.9-0.8-1.2c-0.5-0.3-1.2-0.6-2.1-1.1c-0.7-0.3-1.3-0.7-1.7-1.1
		c-0.3-0.2-0.5-0.4-0.7-0.7c-0.6-0.7-0.8-1.5-0.8-2.4c0-1.2,0.5-2.2,1.3-2.9c0.9-0.7,2-1,3.4-1c1.3,0,2.6,0.3,3.8,1l0.2,0.1v3
		l-0.5-0.3c-1.3-0.8-2.4-1.2-3.4-1.2c-0.6,0-1,0.1-1.3,0.3c-0.3,0.2-0.4,0.4-0.4,0.7c0,0.4,0.3,0.7,0.8,1.1l0,0c0,0,0.1,0.1,0.3,0.2
		c0.3,0.1,0.8,0.4,1.8,0.9c1.1,0.5,1.9,1.1,2.4,1.8c0.1,0.2,0.3,0.4,0.4,0.6C1097.3,611,1097.4,611.6,1097.4,612.2"/>
</g>
<line fill="none" stroke="#939598" stroke-width="2.6727" stroke-miterlimit="10" x1="666.7" y1="301.5" x2="488.5" y2="301.5"/>
<g>
	<g>
		<g>
			<path fill="#010101" stroke="#010101" stroke-width="3" stroke-miterlimit="10" d="M1298.4,591.6c4.9-28.2,31.7-47,59.9-42.2
				c1.2,0.2,2.4,0.5,3.5,0.8l7-37.2c-1.3-0.3-2.7-0.6-4.1-0.8c-48.8-8.5-95.2,24.2-103.6,73c-1.9,10.9-1.7,21.7,0.2,31.9l37.6-4.9
				C1297.5,605.6,1297.2,598.6,1298.4,591.6z"/>
		</g>
	</g>
</g>
<g>
	<g>
		<path fill="#FFFFFF" d="M1289.3,592.4l-16.7,3.6l0.4-2.6l12.5-2.7l-11.2-6.2l0.4-2.6l14.9,8.3L1289.3,592.4z"/>
		<path fill="#FFFFFF" d="M1292,580.9l-0.7,2.3l-15.2-4.8l0.7-2.3L1292,580.9z"/>
		<path fill="#FFFFFF" d="M1288.3,572.7l5.7,2.8l-1.1,2.2l-14.3-7.1l3-6.1l1.4-1.6l2.3-0.8l2.4,0.4l1.7,1.5l1,1.8l0,2.4
			L1288.3,572.7z M1286.2,571.6l1.9-3.8l0-1.3l-0.5-0.8l-0.9-0.8l-1.1-0.2l-1.1,0.4l-0.8,0.9l-1.8,3.6L1286.2,571.6z"/>
		<path fill="#FFFFFF" d="M1304.7,553.6l-3.8,4l1.9,3.8l-1.8,1.9l-7.5-15.2l1.3-1.3l15.5,6.8l-1.8,1.9L1304.7,553.6z M1299.7,555.3
			l2.7-2.8l-5.3-2.4L1299.7,555.3z"/>
		<path fill="#FFFFFF" d="M1308.4,535.6l2-0.7l2.4,0.5l1.9,1.6l0.7,2.2l0,2l-0.6,1l6.4,4l-2.2,1.5l-5.8-3.8l-3,2l3.5,5.3l-2,1.3
			l-8.8-13.3L1308.4,535.6z M1308.8,544l3.6-2.4l0.6-1.1l0-1l-0.4-1.2l-0.9-0.8l-1.1-0.2l-1.2,0.3l-3.3,2.2L1308.8,544z"/>
		<path fill="#FFFFFF" d="M1320.4,532.1l1.4,3.6l5-2l0.9,2.3l-5,2l1.8,4.5l7.3-2.8l0.9,2.2l-9.6,3.7l-5.8-14.9l9.6-3.7l0.9,2.2
			L1320.4,532.1z"/>
		<path fill="#FFFFFF" d="M1341.6,536.1l-5.5,0.9l-0.7,4.2l-2.5,0.4l3.1-16.7l1.8-0.3l8.4,14.8l-2.5,0.4L1341.6,536.1z
			 M1336.5,534.5l3.8-0.6l-2.8-5.1L1336.5,534.5z"/>
	</g>
</g>
<g>
	<g>
		<g>
			<path fill="#010101" stroke="#010101" stroke-width="3" stroke-miterlimit="10" d="M172.7,547.8c0,5.2-0.4,10.5-1.3,15.8
				c-7.8,44.8-47.6,76.1-91.9,74.2l0-37.9c26.2,1.9,50-16.4,54.6-42.8c0.5-3.1,0.8-6.2,0.8-9.3L172.7,547.8z"/>
		</g>
	</g>
</g>
<g>
	<g>
		<path fill="#FFFFFF" d="M95,626.3l-8.6-14.7l2.5-0.4l6.5,11l2.5-12.5l2.5-0.4L97.1,626L95,626.3z"/>
		<path fill="#FFFFFF" d="M108.5,623l-2.3,0.7l-4.9-15.2l2.3-0.7L108.5,623z"/>
		<path fill="#FFFFFF" d="M112.9,614.4l2.8,5.7l-2.2,1.1l-7-14.3l6.1-3l2.1-0.4l2.3,0.8l1.6,1.8l0.4,2.3l-0.3,2l-1.5,1.9
			L112.9,614.4z M111.8,612.3l3.8-1.9l0.8-1l0.1-0.9l-0.2-1.2l-0.8-0.9l-1.1-0.4l-1.2,0.2l-3.6,1.8L111.8,612.3z"/>
		<path fill="#FFFFFF" d="M135.6,601.8l-4.1,3.7l1.7,3.9l-1.9,1.7l-6.5-15.7l1.4-1.3l15,7.9l-1.9,1.7L135.6,601.8z M130.5,603.2
			l2.9-2.6l-5.2-2.8L130.5,603.2z"/>
		<path fill="#FFFFFF" d="M135,583.9l1.7-1.4l2.4-0.4l2.3,0.8l1.5,1.8l0.7,1.9l-0.2,1.2l7.4,1.6l-1.6,2.2l-6.8-1.5l-2.1,2.9l5.2,3.7
			l-1.4,2l-12.9-9.3L135,583.9z M138.3,591.6l2.5-3.5l0.2-1.3l-0.3-0.9l-0.7-1l-1.1-0.4l-1.1,0.2l-1,0.7l-2.3,3.2L138.3,591.6z"/>
		<path fill="#FFFFFF" d="M141.6,577.4l3.5,1.6l2.2-4.9l2.2,1l-2.2,4.9l4.4,2l3.3-7.1l2.2,1l-4.3,9.3l-14.5-6.6l4.3-9.3l2.2,1
			L141.6,577.4z"/>
		<path fill="#FFFFFF" d="M156.6,563l-1.3,5.4l3.6,2.3l-0.6,2.5l-14.2-9.4l0.4-1.8l16.9-1.9l-0.6,2.5L156.6,563z M153.1,567.1
			l0.9-3.8l-5.8,0.6L153.1,567.1z"/>
	</g>
</g>
<path fill="#010101" stroke="#010101" stroke-width="2.3952" stroke-miterlimit="10" d="M120.5,354.6c10.6-7.6,17.6-20,17.6-34.1
	c0-14.2-7.1-26.8-17.9-34.4l-9.8,12.5c7.2,4.6,11.9,12.7,11.9,21.9c0,9-4.6,16.9-11.5,21.6L120.5,354.6z"/>
<g>
	<g>
		<path fill="#FFFFFF" d="M127.5,340.8l-8.2-1.9l0.7-1.1l6.1,1.4l-3.6-5.1l0.7-1.1l4.9,6.8L127.5,340.8z"/>
		<path fill="#FFFFFF" d="M130.8,334.8l-0.5,1.1l-7.1-3.3l0.5-1.1L130.8,334.8z"/>
		<path fill="#FFFFFF" d="M129.2,330.4l3,0.9l-0.3,1.1l-7.5-2.2l0.9-3.2l0.5-0.9l1-0.6l1.2,0l1,0.6l0.6,0.8l0.2,1.1L129.2,330.4z
			 M128.1,330.1l0.6-2l-0.1-0.6l-0.3-0.4l-0.5-0.3l-0.6,0l-0.5,0.3l-0.3,0.5l-0.5,1.9L128.1,330.1z"/>
		<path fill="#FFFFFF" d="M132,318l0.1,2.7l2,0.6l0,1.3l-7.9-2.7l0-0.9l7.8-3l0,1.3L132,318z M130.8,320.3l0-1.9l-2.7,1L130.8,320.3
			z"/>
		<path fill="#FFFFFF" d="M125.1,312.5l0-1.1l0.6-1l1-0.6l1.1,0l0.9,0.3l0.4,0.5l2.9-2.3l0.3,1.3l-2.7,2.1l0.4,1.7l3-0.7l0.3,1.2
			l-7.6,1.8L125.1,312.5z M129.1,313.7l-0.5-2l-0.4-0.5l-0.4-0.2l-0.6,0l-0.5,0.3l-0.3,0.5l0,0.6l0.5,1.9L129.1,313.7z"/>
		<path fill="#FFFFFF" d="M124.8,308.1l1.7-0.8l-1.1-2.4l1.1-0.5l1.1,2.4l2.1-1l-1.7-3.5l1.1-0.5l2.2,4.5l-7,3.4l-2.2-4.5l1.1-0.5
			L124.8,308.1z"/>
		<path fill="#FFFFFF" d="M124,297.9l1.7,2.2l2-0.6l0.8,1l-7.9,2.5l-0.6-0.7l4.5-7l0.8,1L124,297.9z M124.5,300.5l-1.2-1.5l-1.6,2.4
			L124.5,300.5z"/>
	</g>
</g>
<g>
	<path fill="#010101" d="M184.5,261.8h16.7l5.4,1.5l3.9,4.2l1.2,5.5l-1.1,4.4l-2,2.6l-1.1,0.6l1.1,0.6l2.6,3.4l1.3,5.5l-1.3,5.5
		l-3.1,3.8l-4.7,2.2h-18.8V261.8z M190.5,267.7v9.7h11.4l2.3-1.6l0.5-0.7l0.7-2.4l-0.6-2.4l-1.6-1.8l-2.5-0.8H190.5z M204,294.4
		l1.3-1.5l0.7-2.9l-0.7-3.3l-1.1-1.8l-2.5-1.5h-11.2v12.1h11.2L204,294.4z"/>
	<path fill="#010101" d="M225.8,295.5h17.4v6h-23.4v-39.7h6V295.5z"/>
	<path fill="#010101" d="M260,301.9l-7.3-2.7l-4-5.2l-1.3-4.2v-28.1h6.1v27.4l0.6,2.1l2.3,3l4.4,1.6h3.2l4.3-1.6l2.4-3l0.6-2.1
		v-27.4h6v28.1l-1.3,4.2l-4,5.2l-7.2,2.7H260z"/>
	<path fill="#010101" d="M293.3,267.7v9.7h13.4v6h-13.4v12.1h19.4v6h-25.5v-39.7h25.5v6H293.3z"/>
	<path fill="#010101" d="M181.6,328.5l-0.9-1.1l2.2-2.1l0.8,1l1.1,0.7l2.2,0.6h2.2l1.9-0.7l0.5-0.6l0.3-0.7v-1.4l-0.5-1.1l-1.1-0.6
		c-0.9-0.2-1.8-0.5-2.7-0.8c-0.9-0.3-1.8-0.5-2.8-0.8l-2.3-1.6l-1-1.5l-0.4-2.4l0.8-2.5l1.9-2l2.7-0.9h3l3.2,0.8l2.2,1.4l-1.6,2.6
		l-1.9-1.1l-2.3-0.6h-2.1l-1.4,0.5l-0.9,0.9l-0.3,1.1l0.2,1.1l0.2,0.4l1.3,0.9l5.7,1.6l2.3,1.6l0.9,2.2v2.8l-0.7,1.6l-1.4,1.6
		l-3.1,1.2h-3.3l-3.1-1L181.6,328.5z"/>
	<path fill="#010101" d="M205.2,330.4h-3.1v-17.1H197v-3h13.4v3h-5.2V330.4z"/>
	<path fill="#010101" d="M221.6,325.4h-7l-1.8,5h-3.3l7.3-20.1h2.3l7.3,20.1h-3.3L221.6,325.4z M215.7,322.4h4.9l-2.4-7L215.7,322.4
		z"/>
	<path fill="#010101" d="M239.9,314.5l-0.9-0.7l-1.9-0.6h-2l-1.8,0.8l-1.2,1.2l-0.8,1.6l-0.4,1.8v3.4l0.4,1.8l0.8,1.6l1.2,1.2
		l1.8,0.8h2.1l1.4-0.6l1.2-1l0.8-1.3l0.2-0.8v-0.9H236v-3h7.8v4.1l-0.3,1.7l-1.2,2.1l-2,1.8l-2.5,1.1h-3.3l-3-1.3l-2-2l-1.2-2.5
		l-0.5-2.4v-4.2l0.5-2.5l1.2-2.5l2-2l3-1.3h3.1l3,1.1l1.3,1l1.4,1.6l-2.3,2L239.9,314.5z"/>
	<path fill="#010101" d="M250.8,313.4v4.9h6.8v3.1h-6.8v6.1h9.8v3h-12.9v-20.1h12.9v3H250.8z"/>
</g>
<g>
	<path fill="#010101" d="M279.3,679.3l-1.8-1.3l-3.8-1.3h-4l-3.5,1.6l-2.5,2.5l-1.6,3.1l-0.8,3.6v6.8l0.8,3.6l1.7,3.2l2.3,2.3
		l3.6,1.7h4.1l2.8-1.3l2.3-2l1.6-2.6l0.4-1.7v-1.8h-9.3v-6H287v8.2l-0.6,3.4l-2.5,4.1l-4,3.5l-5,2.2h-6.4l-6-2.6l-3.9-3.9l-2.4-5
		l-1.1-4.7v-8.2l1.1-4.9l2.3-4.9l4-3.9l5.9-2.6h6.2l5.9,2.2l2.6,2l2.7,3.2l-4.5,3.9L279.3,679.3z"/>
	<path fill="#010101" d="M311.8,671.1l5.2,1.3l4.2,4.2l1.7,5.9l-1.5,5.6l-2.8,4.2l-2.7,1.3l7.6,17.1h-6.7l-6.9-15.9H301v15.9h-6
		v-39.7H311.8z M301,689h10.6l2.8-1.4l1.3-2l0.8-2.9l-0.8-2.8l-2-2l-2.9-0.9H301V689z"/>
	<path fill="#010101" d="M336.4,677.1v9.7h13.4v6h-13.4v12.1h19.4v6h-25.5v-39.7h25.5v6H336.4z"/>
	<path fill="#010101" d="M368.9,677.1v9.7h13.4v6h-13.4v12.1h19.4v6h-25.5v-39.7h25.5v6H368.9z"/>
	<path fill="#010101" d="M395.4,671.1h5l20,29.1v-29.1h6.1v39.7h-6l-19-27.8v27.8h-6.1V671.1z"/>
	<path fill="#010101" d="M254.2,737.9l-0.9-1.1l2.2-2.1l0.8,1l1.1,0.7l2.2,0.7h2.2l1.9-0.7l0.5-0.6l0.3-0.7v-1.4l-0.5-1.1l-1.1-0.6
		c-0.9-0.2-1.8-0.5-2.7-0.8c-0.9-0.3-1.8-0.5-2.8-0.8l-2.3-1.6l-1-1.5l-0.4-2.4l0.8-2.5l1.9-2l2.7-0.9h3l3.2,0.8l2.2,1.4l-1.6,2.6
		l-1.9-1.1l-2.3-0.6h-2.1l-1.4,0.5l-0.9,0.9L257,725l0.2,1.1l0.2,0.4l1.3,0.9l5.7,1.6l2.3,1.6l0.9,2.2v2.8l-0.7,1.6l-1.4,1.6
		l-3.1,1.2H259l-3.1-1L254.2,737.9z"/>
	<path fill="#010101" d="M277.8,739.8h-3.1v-17.1h-5.1v-3h13.4v3h-5.2V739.8z"/>
	<path fill="#010101" d="M294.2,734.8h-7l-1.8,5h-3.3l7.3-20.1h2.3l7.3,20.1H296L294.2,734.8z M288.3,731.7h4.9l-2.4-7L288.3,731.7z
		"/>
	<path fill="#010101" d="M312.5,723.8l-0.9-0.7l-1.9-0.7h-2l-1.8,0.8l-1.2,1.2l-0.8,1.6l-0.4,1.8v3.4l0.4,1.8l0.8,1.6l1.2,1.2
		l1.8,0.8h2.1l1.4-0.7l1.2-1l0.8-1.3l0.2-0.8v-0.9h-4.7v-3h7.8v4.1l-0.3,1.7l-1.2,2.1l-2,1.8l-2.5,1.1h-3.3l-3-1.3l-2-2l-1.2-2.5
		l-0.5-2.4v-4.2l0.5-2.5l1.2-2.5l2-2l3-1.3h3.1l3,1.1l1.3,1l1.4,1.6l-2.3,2L312.5,723.8z"/>
	<path fill="#010101" d="M323.5,722.7v4.9h6.8v3.1h-6.8v6.1h9.8v3h-12.9v-20.1h12.9v3H323.5z"/>
</g>
</svg>
