<?xml version="1.0" encoding="utf-8"?>
<!-- Generator: Adobe Illustrator 18.0.0, SVG Export Plug-In . SVG Version: 6.00 Build 0)  -->
<!DOCTYPE svg PUBLIC "-//W3C//DTD SVG 1.1//EN" "http://www.w3.org/Graphics/SVG/1.1/DTD/svg11.dtd">
<svg version="1.1" id="Layer_1" xmlns="http://www.w3.org/2000/svg" xmlns:xlink="http://www.w3.org/1999/xlink" x="0px" y="0px"
	 viewBox="0 0 99.2 154.3" enable-background="new 0 0 99.2 154.3" xml:space="preserve">
<polygon fill="#C11F49" points="6.4,74.8 0,55.1 2.2,34.5 12.5,16.5 29.3,4.3 49.6,0 69.9,4.3 86.7,16.5 97,34.5 99.2,55.1 
	92.8,74.8 49.6,154.3 "/>
<g>
	<path fill="#010101" d="M32.8,66.8l-2.4-0.8l-1.3-1.3l-0.8-1.7l0-1.7v-2.4h42.7l0,2.4l0,1.7l-0.8,1.7l-1.3,1.3l-2.4,0.8H32.8z"/>
	<polygon fill="#010101" points="68.8,56.2 68.8,56.2 70.1,54.9 70.9,53.2 70.9,51.5 70.1,49.8 68.8,48.5 30.4,48.5 30.4,48.5 
		29.1,49.8 28.3,51.5 28.3,53.2 29.1,54.9 30.4,56.2 	"/>
	<path fill="#010101" d="M70.1,49.8"/>
	<path fill="#010101" d="M68.2,33.2l-3.7-3.8l-5.3-2.6L54,25.6l-8.9,0l-5,1.1l-5.2,2.6L31,33.2l-2.8,6.2v6.4l42.7,0l0-6.4L68.2,33.2
		z M35.7,33l1.5,1.2l-0.8,1L34.9,34L35.7,33z M35.7,39.8l-0.7-1l3.7-2.4l0.7,1L35.7,39.8z M50.8,32.4l1.2,1.6l-1,0.7l-1.2-1.6
		L50.8,32.4z M41.3,30.2l1.2-0.3l1,3.6l-1.2,0.3L41.3,30.2z M44.3,40.4l-0.8-0.9l3-2.8l0.8,0.9L44.3,40.4z M47.3,30l-0.8-1l1.8-1.4
		l0.8,1L47.3,30z M51.8,41.9l-2.2-1.4l0.7-1l2.2,1.4L51.8,41.9z M54.7,29.2l-2.5-0.3l0.2-1.2l2.5,0.3L54.7,29.2z M57.5,30.5l0.8,0.9
		l-2.4,2.1l-0.8-0.9L57.5,30.5z M56.4,39l-0.7-1l2.6-1.9l0.7,1L56.4,39z M61.9,32.6l1.9,2.2l-0.9,0.8l-1.9-2.2L61.9,32.6z M64,41.8
		l-2.4-2.4l0.9-0.9l2.4,2.4L64,41.8z"/>
</g>
</svg>
