<?xml version="1.0" encoding="utf-8"?>
<!-- Generator: Adobe Illustrator 18.0.0, SVG Export Plug-In . SVG Version: 6.00 Build 0)  -->
<!DOCTYPE svg PUBLIC "-//W3C//DTD SVG 1.1//EN" "http://www.w3.org/Graphics/SVG/1.1/DTD/svg11.dtd">
<svg version="1.1" id="Layer_1" xmlns="http://www.w3.org/2000/svg" xmlns:xlink="http://www.w3.org/1999/xlink" x="0px" y="0px"
	 viewBox="0 0 99.2 154.3" enable-background="new 0 0 99.2 154.3" xml:space="preserve">
<polygon fill="#FCD1B9" points="6.4,74.8 0,55.1 2.2,34.5 12.5,16.5 29.3,4.3 49.6,0 69.9,4.3 86.7,16.5 97,34.5 99.2,55.1 
	92.8,74.8 49.6,154.3 "/>
<g>
	<path fill="#010101" d="M34.4,37.3V38c-1.3-0.4-2.8-0.7-4.4-0.7c-2.6,0-4.8,0.6-6,3.9c0,6.4-0.8,15.6,2.8,21.5
		c1.4,2.3,4.4,4,7.7,4.6v1.4h31.4c0-11.1,0-21,0-31.4L34.4,37.3z M34.4,40.8c0,8,0,15.8,0,23.9c-1.8-0.3-4-1.4-5.4-3.2
		c-2.8-4.5-2.4-13.4-2.4-20c0.5-1.2,2-1.6,3.4-1.6C31.5,39.9,33.2,40.3,34.4,40.8z M34.4,71.3v3.9l31.4,0v-3.9L34.4,71.3z"/>
	<polygon fill="#010101" points="65.8,33.6 65.6,33.2 64.8,32.5 65.4,31.7 65.5,30.6 65.1,29.6 64.3,28.8 63.2,28.5 62.1,28.8 
		62,28.9 61.6,27.8 60,26.4 57.9,25.8 56.2,26.3 56.2,26.2 56.5,24.4 55.8,22.6 54.4,21.4 52.7,21 50.9,21.4 49.9,22.3 49.2,21.6 
		46.1,20.8 43,21.6 40.6,23.7 39.5,26.7 39.8,29.1 39.4,29 37.1,29.6 35.3,31.2 34.4,33.4 34.4,33.6 34.4,34.8 65.8,34.8 	"/>
</g>
</svg>
