<?xml version="1.0" encoding="utf-8"?>
<!-- Generator: Adobe Illustrator 18.0.0, SVG Export Plug-In . SVG Version: 6.00 Build 0)  -->
<!DOCTYPE svg PUBLIC "-//W3C//DTD SVG 1.1//EN" "http://www.w3.org/Graphics/SVG/1.1/DTD/svg11.dtd">
<svg version="1.1" id="Layer_1" xmlns="http://www.w3.org/2000/svg" xmlns:xlink="http://www.w3.org/1999/xlink" x="0px" y="0px"
	 viewBox="0 0 153.1 139.9" enable-background="new 0 0 153.1 139.9" xml:space="preserve">
<g>
	<path fill="#EBE70F" d="M30.6,22.7l-4.4-1.5l-2.8-2.1l-1.8-2.8l-0.8-2.7V9l0.8-2.7l1.9-2.8l2.7-2L30.6,0h4.5l4.4,1.5l2.7,2l1.9,2.8
		L44.9,9v4.7l-0.8,2.7l-1.8,2.8l-2.8,2.1l-4.4,1.5H30.6z"/>
	<path fill="#EBE70F" d="M123.7,22.7l-4.4-1.5l-2.8-2.1l-1.8-2.8l-0.8-2.7V9l0.8-2.7l1.9-2.8l2.7-2l4.4-1.5h4.5l4.4,1.5l2.7,2
		l1.9,2.8l0.8,2.7v4.7l-0.8,2.7l-1.8,2.8l-2.8,2.1l-4.4,1.5H123.7z"/>
	<path fill="#EBE70F" d="M19.9,42.1l-9.3,31.7l-1,1.7l-1.3,1.5l-1.9,0.9l-2.1,0.2l-1.9-0.6L1,76l-0.9-1.9L0,72.1l0.3-2l9.4-31.9
		l7.9-8l10.2-4.7H38l10,4.7l8,8l9.4,31.9l0.3,2L65.7,74L64.8,76l-1.5,1.5l-1.9,0.6l-2.1-0.2l-1.9-1l-1.3-1.5l-1-1.7l-9.3-31.7H44
		l15.3,52.7H45.1l0.2,39l-0.4,1.9l-0.7,1.8l-1.5,1.5l-1.9,0.9h-2l-1.9-0.9l-1.5-1.5l-0.7-1.8l-0.4-1.9v-39h-3.1l0.2,39l-0.4,1.9
		l-0.7,1.8l-1.5,1.5l-1.9,0.9h-2l-1.9-0.9l-1.5-1.5l-0.7-1.8l-0.4-1.9V94.8H6.3l15.2-52.7H19.9z"/>
	<path fill="#EBE70F" d="M132.7,25.5l12.5,4.2l5.6,6.5l2.4,6.2v33.4l-0.4,1.9l-0.7,1.8l-1.5,1.5l-1.9,0.9h-2l-1.9-0.9l-1.5-1.5
		l-0.7-1.8l-0.4-1.9V43.8h-2.6v89.9l-0.4,1.9l-0.7,1.8L137,139l-1.9,0.9h-3l-1.9-0.9l-1.5-1.5l-0.7-1.8l-0.4-1.9v-53H125v53
		l-0.4,1.9l-0.7,1.8l-1.5,1.5l-1.9,0.9h-3l-1.9-0.9l-1.5-1.5l-0.7-1.8l-0.4-1.9V43.8h-3.1v31.9l-0.4,1.9l-0.7,1.8l-1.5,1.5l-1.9,0.9
		h-2l-1.9-0.9l-1.5-1.5l-0.7-1.8L99,75.8V42.3l2.4-6.2l5.6-6.5l12.5-4.2H132.7z"/>
	<rect x="74" y="1.3" fill="#EBE70F" width="13" height="137.9"/>
</g>
</svg>
