<?xml version="1.0" encoding="utf-8"?>
<!-- Generator: Adobe Illustrator 18.0.0, SVG Export Plug-In . SVG Version: 6.00 Build 0)  -->
<!DOCTYPE svg PUBLIC "-//W3C//DTD SVG 1.1//EN" "http://www.w3.org/Graphics/SVG/1.1/DTD/svg11.dtd">
<svg version="1.1" id="Layer_1" xmlns="http://www.w3.org/2000/svg" xmlns:xlink="http://www.w3.org/1999/xlink" x="0px" y="0px"
	 viewBox="0 0 1453.8 850" enable-background="new 0 0 1453.8 850" xml:space="preserve">
<polyline fill="none" stroke="#424143" stroke-width="1.7818" stroke-miterlimit="10" points="623.6,630.5 623.6,557.8 655.2,557.8 
	655.2,547.5 253.3,547.5 253.3,217.6 1198.8,217.6 1198.8,447.6 924,447.6 924,482.1 836.6,482.1 836.6,557.8 873.4,557.8 
	873.4,630.5 "/>
<polyline fill="#231F20" points="623.6,630.5 623.6,557.8 655.2,557.8 655.2,547.5 253.3,547.5 253.3,217.6 1198.8,217.6 
	1198.8,447.6 924,447.6 924,482.1 836.6,482.1 836.6,557.8 873.4,557.8 873.4,630.5 "/>
<polyline fill="none" stroke="#939598" stroke-width="2.6727" stroke-miterlimit="10" points="623.6,630.5 623.6,557.8 655.2,557.8 
	655.2,547.5 253.3,547.5 253.3,217.6 1198.8,217.6 1198.8,447.6 924,447.6 924,482.1 836.6,482.1 836.6,557.8 873.4,557.8 
	873.4,630.5 "/>
<polyline fill="none" stroke="#939598" stroke-width="2.6727" stroke-miterlimit="10" points="836.6,482.1 836.6,381.6 
	1048.6,381.6 1048.6,217.6 "/>
<polyline fill="none" stroke="#939598" stroke-width="2.6727" stroke-miterlimit="10" points="718.1,217.6 718.1,261 253.3,261 "/>
<polyline fill="none" stroke="#EBE70F" stroke-width="1.5145" stroke-miterlimit="10" points="718.1,267.4 712,267.4 712,273.7 
	705.8,273.7 705.8,279.8 699.6,279.8 "/>
<polyline fill="none" stroke="#EBE70F" stroke-width="1.5145" stroke-miterlimit="10" points="587.1,267.4 580.9,267.4 580.9,273.7 
	574.7,273.7 574.7,279.8 568.6,279.8 "/>
<polyline fill="none" stroke="#EBE70F" stroke-width="1.5145" stroke-miterlimit="10" points="628.7,518 622.5,518 622.5,524.3 
	616.3,524.3 616.3,530.4 610.1,530.4 "/>
<polyline fill="none" stroke="#EBE70F" stroke-width="1.5145" stroke-miterlimit="10" points="833.3,489.1 827.1,489.1 827.1,495.4 
	820.9,495.4 820.9,501.5 814.7,501.5 "/>
<polyline fill="none" stroke="#EBE70F" stroke-width="1.5145" stroke-miterlimit="10" points="394.7,518 388.5,518 388.5,524.3 
	382.3,524.3 382.3,530.4 376.1,530.4 "/>
<polyline fill="none" stroke="#EBE70F" stroke-width="1.5145" stroke-miterlimit="10" points="376,267.4 369.8,267.4 369.8,273.7 
	363.6,273.7 363.6,279.8 357.4,279.8 "/>
<line fill="none" stroke="#939598" stroke-width="2.6727" stroke-miterlimit="10" x1="836.6" y1="557.8" x2="655.2" y2="557.8"/>
<g>
	<path fill="#EBE70F" d="M348.1,517.8l-0.7-0.2l-0.4-0.3l-0.3-0.4l-0.1-0.4v-0.7l0.1-0.4l0.3-0.4l0.4-0.3l0.7-0.2h0.7l0.7,0.2
		l0.4,0.3l0.3,0.4l0.1,0.4v0.7l-0.1,0.4l-0.3,0.4l-0.4,0.3l-0.7,0.2H348.1z"/>
	<path fill="#EBE70F" d="M362.8,517.8l-0.7-0.2l-0.4-0.3l-0.3-0.4l-0.1-0.4v-0.7l0.1-0.4l0.3-0.4l0.4-0.3l0.7-0.2h0.7l0.7,0.2
		l0.4,0.3l0.3,0.4l0.1,0.4v0.7l-0.1,0.4l-0.3,0.4l-0.4,0.3l-0.7,0.2H362.8z"/>
	<path fill="#EBE70F" d="M346.5,520.8l-1.5,5l-0.2,0.3l-0.2,0.2l-0.3,0.1l-0.3,0l-0.3-0.1l-0.2-0.2l-0.1-0.3l0-0.3l0-0.3l1.5-5
		l1.2-1.3l1.6-0.7h1.6l1.6,0.7l1.3,1.3l1.5,5l0,0.3l0,0.3l-0.1,0.3l-0.2,0.2l-0.3,0.1l-0.3,0l-0.3-0.2l-0.2-0.2l-0.2-0.3l-1.5-5
		h-0.3l2.4,8.3h-2.2l0,6.1l-0.1,0.3l-0.1,0.3l-0.2,0.2l-0.3,0.1h-0.3l-0.3-0.1l-0.2-0.2l-0.1-0.3l-0.1-0.3v-6.1h-0.5l0,6.1l-0.1,0.3
		l-0.1,0.3l-0.2,0.2l-0.3,0.1h-0.3L347,536l-0.2-0.2l-0.1-0.3l-0.1-0.3v-6.1h-2.2l2.4-8.3H346.5z"/>
	<path fill="#EBE70F" d="M364.2,518.2l2,0.7l0.9,1l0.4,1v5.2l-0.1,0.3l-0.1,0.3l-0.2,0.2l-0.3,0.1h-0.3l-0.3-0.1l-0.2-0.2l-0.1-0.3
		l-0.1-0.3v-5h-0.4v14.1l-0.1,0.3l-0.1,0.3l-0.2,0.2l-0.3,0.1h-0.5l-0.3-0.1l-0.2-0.2l-0.1-0.3l-0.1-0.3v-8.3H363v8.3l-0.1,0.3
		l-0.1,0.3l-0.2,0.2l-0.3,0.1h-0.5l-0.3-0.1l-0.2-0.2l-0.1-0.3l-0.1-0.3v-14.1h-0.5v5l-0.1,0.3l-0.1,0.3l-0.2,0.2l-0.3,0.1h-0.3
		l-0.3-0.1l-0.2-0.2l-0.1-0.3l-0.1-0.3v-5.2l0.4-1l0.9-1l2-0.7H364.2z"/>
	<rect x="355" y="514.4" fill="#EBE70F" width="2" height="21.7"/>
</g>
<g>
	<path fill="#EBE70F" d="M503.7,517.8l-0.7-0.2l-0.4-0.3l-0.3-0.4l-0.1-0.4v-0.7l0.1-0.4l0.3-0.4l0.4-0.3l0.7-0.2h0.7l0.7,0.2
		l0.4,0.3l0.3,0.4l0.1,0.4v0.7l-0.1,0.4l-0.3,0.4l-0.4,0.3l-0.7,0.2H503.7z"/>
	<path fill="#EBE70F" d="M518.4,517.8l-0.7-0.2l-0.4-0.3l-0.3-0.4l-0.1-0.4v-0.7l0.1-0.4l0.3-0.4l0.4-0.3l0.7-0.2h0.7l0.7,0.2
		l0.4,0.3l0.3,0.4l0.1,0.4v0.7l-0.1,0.4l-0.3,0.4l-0.4,0.3l-0.7,0.2H518.4z"/>
	<path fill="#EBE70F" d="M502.1,520.8l-1.5,5l-0.2,0.3l-0.2,0.2l-0.3,0.1l-0.3,0l-0.3-0.1l-0.2-0.2l-0.1-0.3l0-0.3l0-0.3l1.5-5
		l1.2-1.3l1.6-0.7h1.6l1.6,0.7l1.3,1.3l1.5,5l0,0.3l0,0.3l-0.1,0.3l-0.2,0.2l-0.3,0.1l-0.3,0l-0.3-0.2l-0.2-0.2l-0.2-0.3l-1.5-5
		h-0.3l2.4,8.3H506l0,6.1l-0.1,0.3l-0.1,0.3l-0.2,0.2l-0.3,0.1H505l-0.3-0.1l-0.2-0.2l-0.1-0.3l-0.1-0.3v-6.1h-0.5l0,6.1l-0.1,0.3
		l-0.1,0.3l-0.2,0.2l-0.3,0.1h-0.3l-0.3-0.1l-0.2-0.2l-0.1-0.3l-0.1-0.3v-6.1h-2.2l2.4-8.3H502.1z"/>
	<path fill="#EBE70F" d="M519.8,518.2l2,0.7l0.9,1l0.4,1v5.2l-0.1,0.3l-0.1,0.3l-0.2,0.2l-0.3,0.1H522l-0.3-0.1l-0.2-0.2l-0.1-0.3
		l-0.1-0.3v-5h-0.4v14.1l-0.1,0.3l-0.1,0.3l-0.2,0.2l-0.3,0.1h-0.5l-0.3-0.1l-0.2-0.2l-0.1-0.3l-0.1-0.3v-8.3h-0.4v8.3l-0.1,0.3
		l-0.1,0.3l-0.2,0.2l-0.3,0.1h-0.5l-0.3-0.1l-0.2-0.2l-0.1-0.3l-0.1-0.3v-14.1h-0.5v5l-0.1,0.3l-0.1,0.3l-0.2,0.2l-0.3,0.1h-0.3
		l-0.3-0.1l-0.2-0.2l-0.1-0.3l-0.1-0.3v-5.2l0.4-1l0.9-1l2-0.7H519.8z"/>
	<rect x="510.6" y="514.4" fill="#EBE70F" width="2" height="21.7"/>
</g>
<rect x="910.8" y="236" fill="none" stroke="#939598" stroke-width="2.6727" stroke-miterlimit="10" width="116.8" height="49.9"/>
<rect x="268.7" y="296.8" fill="#B7DCAF" width="228.1" height="59.3"/>
<rect x="293.4" y="448.7" fill="#B7DCAF" width="278.6" height="54.1"/>
<rect x="726" y="401.5" fill="#B7DCAF" width="101.4" height="52.6"/>
<rect x="726" y="226" fill="#B7DCAF" width="101.4" height="52.6"/>
<rect x="836.6" y="302.9" fill="#B7DCAF" width="199.6" height="66.6"/>
</svg>
