<?xml version="1.0" encoding="utf-8"?>
<!-- Generator: Adobe Illustrator 18.0.0, SVG Export Plug-In . SVG Version: 6.00 Build 0)  -->
<!DOCTYPE svg PUBLIC "-//W3C//DTD SVG 1.1//EN" "http://www.w3.org/Graphics/SVG/1.1/DTD/svg11.dtd">
<svg version="1.1" id="Layer_1" xmlns="http://www.w3.org/2000/svg" xmlns:xlink="http://www.w3.org/1999/xlink" x="0px" y="0px"
	 viewBox="0 0 99.2 154.3" enable-background="new 0 0 99.2 154.3" xml:space="preserve">
<g>
	<polygon fill="#6BBE45" points="6.4,74.8 0,55.1 2.2,34.5 12.5,16.5 29.3,4.3 49.6,0 69.9,4.3 86.7,16.5 97,34.5 99.2,55.1 
		92.8,74.8 49.6,154.3 	"/>
	<g>
		<path fill="#010101" d="M29.3,62.7L18.8,34.9h4.5l7.9,20.8L39,34.9h4.5L33,62.7H29.3z"/>
		<path fill="#010101" d="M51,62.7h-4.2V34.9H51V62.7z"/>
		<path fill="#010101" d="M62,51.6v11.1h-4.2V34.9h11.8l3.6,0.9l3,3l1.2,4.1l-1.1,3.9l-2,2.9l-3.7,1.8H62z M62,47.4h7.4l2-1l0.9-1.4
			l0.6-2l-0.5-2L71,39.7l-2-0.6h-7V47.4z"/>
	</g>
</g>
</svg>
